<svg width="40" height="46" viewBox="0 0 40 46" fill="none" xmlns="http://www.w3.org/2000/svg">
<path d="M20 35.7168C25.9115 35.7168 30.7036 30.9246 30.7036 25.0132C30.7036 19.1017 25.9115 14.3096 20 14.3096C14.0886 14.3096 9.29639 19.1017 9.29639 25.0132C9.29639 30.9246 14.0886 35.7168 20 35.7168Z" fill="#AECDFB"/>
<path d="M20 39.2811C16.6587 39.2811 13.41 38.102 10.8522 35.9598C10.6406 35.7828 10.6126 35.4671 10.7896 35.2555C10.9667 35.0429 11.2819 35.0148 11.4945 35.1929C13.8728 37.1835 16.8933 38.2806 20 38.2806C27.3098 38.2806 33.2569 32.3334 33.2569 25.0236C33.2569 17.7138 27.3098 11.7666 20 11.7666C12.8572 11.7666 7.01566 17.4441 6.75252 24.5233H8.92516C9.20131 24.5233 9.42543 24.747 9.42543 25.0236C9.42543 25.3002 9.20131 25.5239 8.92516 25.5239H6.24276C5.96661 25.5239 5.74249 25.3002 5.74249 25.0236C5.74249 17.162 12.1384 10.7661 20 10.7661C27.8616 10.7661 34.2575 17.162 34.2575 25.0236C34.2575 32.8852 27.8616 39.2811 20 39.2811Z" fill="#0C0C0C"/>
<path d="M20 45.0236C8.97221 45.0236 0 36.0514 0 25.0236C0 15.3866 6.78656 7.19728 16.1985 5.38983V3.98009H14.0239C13.7477 3.98009 13.5236 3.75597 13.5236 3.47983C13.5236 1.56082 15.0844 0 17.0034 0H22.9966C24.9156 0 26.4764 1.56082 26.4764 3.47983C26.4764 3.75597 26.2528 3.98009 25.9761 3.98009H23.801V5.38983C33.2139 7.19678 40 15.3851 40 25.0236C40 36.0514 31.0283 45.0236 20 45.0236ZM17.199 5.74902C17.1995 5.75402 17.2 5.75952 17.2005 5.76403C17.2225 6.02316 17.0455 6.25578 16.7893 6.29931C7.64051 7.85712 1.00053 15.7318 1.00053 25.0236C1.00053 35.5001 9.5235 44.0231 20 44.0231C30.4765 44.0231 38.9995 35.5001 38.9995 25.0236C38.9995 15.7298 32.3575 7.85512 23.2057 6.29881C22.9496 6.25528 22.7695 6.02266 22.7915 5.76353C22.793 5.74201 22.7965 5.7205 22.801 5.69999V3.47983C22.801 3.20368 23.0246 2.97956 23.3012 2.97956H25.4254C25.1932 1.85147 24.1927 1.00053 22.9966 1.00053H17.0034C15.8078 1.00053 14.8068 1.85147 14.5752 2.97956H16.6993C16.9754 2.97956 17.1995 3.20368 17.1995 3.47983V5.74902H17.199Z" fill="#0C0C0C"/>
<path d="M18.8814 30.9898H12.2739C12.0768 30.9898 11.8982 30.8742 11.8176 30.6942C11.7366 30.5146 11.7691 30.3044 11.9002 30.1574L17.7007 23.6344C18.6878 22.5249 18.5877 20.8195 17.4781 19.8325C16.368 18.8459 14.6631 18.9455 13.6756 20.0551C13.4925 20.2612 13.1759 20.2802 12.9692 20.0966C12.7626 19.913 12.7441 19.5968 12.9277 19.3902C14.2809 17.8684 16.6202 17.7314 18.1425 19.0851C19.6643 20.4388 19.8013 22.778 18.4476 24.2998L13.388 29.9893H18.8814C19.1575 29.9893 19.3816 30.2129 19.3816 30.4895C19.3816 30.7662 19.1575 30.9898 18.8814 30.9898Z" fill="#0C0C0C"/>
<path d="M25.9346 30.9898C25.6579 30.9898 25.4343 30.7662 25.4343 30.4895V28.5H20.1576C19.976 28.5 19.8089 28.402 19.7203 28.2434C19.6323 28.0848 19.6363 27.8912 19.7318 27.7366L25.5089 18.3882C25.6259 18.1981 25.855 18.108 26.0712 18.1701C26.2863 18.2311 26.4348 18.4277 26.4348 18.6513V27.4995H28.1698C28.4464 27.4995 28.67 27.7231 28.67 27.9997C28.67 28.2764 28.4464 28.5 28.1698 28.5H26.4348V30.49C26.4348 30.7662 26.2112 30.9898 25.9346 30.9898ZM21.0545 27.4995H25.4343V20.4128L21.0545 27.4995Z" fill="#0C0C0C"/>
<path d="M31.5385 25.5238H31.0748C30.7981 25.5238 30.5745 25.3002 30.5745 25.0236C30.5745 24.7469 30.7981 24.5233 31.0748 24.5233H31.5385C31.8152 24.5233 32.0388 24.7469 32.0388 25.0236C32.0388 25.3002 31.8152 25.5238 31.5385 25.5238Z" fill="#0C0C0C"/>
<path d="M20 14.4486C19.7239 14.4486 19.4998 14.2245 19.4998 13.9484V13.4846C19.4998 13.2085 19.7239 12.9844 20 12.9844C20.2762 12.9844 20.5003 13.2085 20.5003 13.4846V13.9484C20.5003 14.225 20.2762 14.4486 20 14.4486Z" fill="#0C0C0C"/>
<path d="M20 37.0624C19.7239 37.0624 19.4998 36.8388 19.4998 36.5622V36.0984C19.4998 35.8218 19.7239 35.5981 20 35.5981C20.2762 35.5981 20.5003 35.8218 20.5003 36.0984V36.5622C20.5003 36.8388 20.2762 37.0624 20 37.0624Z" fill="#0C0C0C"/>
</svg>
