<svg width="20" height="21" viewBox="0 0 20 21" fill="none" xmlns="http://www.w3.org/2000/svg">
<path d="M14.5417 19.4583C13.6 19.4583 12.6083 19.2333 11.5833 18.8C10.5833 18.375 9.575 17.7916 8.59167 17.0833C7.61667 16.3666 6.675 15.5666 5.78334 14.6916C4.9 13.8 4.1 12.8583 3.39167 11.8916C2.67501 10.8916 2.1 9.89163 1.69167 8.92496C1.25834 7.89163 1.04167 6.89163 1.04167 5.94996C1.04167 5.29996 1.15834 4.68329 1.38334 4.10829C1.61667 3.51663 1.99167 2.96663 2.50001 2.49163C3.14167 1.85829 3.87501 1.54163 4.65834 1.54163C4.98334 1.54163 5.31667 1.61663 5.6 1.74996C5.925 1.89996 6.2 2.12496 6.4 2.42496L8.33334 5.14996C8.50834 5.39163 8.64167 5.62496 8.73334 5.85829C8.84167 6.10829 8.9 6.35829 8.9 6.59996C8.9 6.91663 8.80834 7.22496 8.63334 7.51663C8.50834 7.74163 8.31667 7.98329 8.075 8.22496L7.50834 8.81663C7.51667 8.84163 7.525 8.85829 7.53334 8.87496C7.63334 9.04996 7.83334 9.34996 8.21667 9.79996C8.625 10.2666 9.00834 10.6916 9.39167 11.0833C9.88334 11.5666 10.2917 11.95 10.675 12.2666C11.15 12.6666 11.4583 12.8666 11.6417 12.9583L11.625 13L12.2333 12.4C12.4917 12.1416 12.7417 11.95 12.9833 11.825C13.4417 11.5416 14.025 11.4916 14.6083 11.7333C14.825 11.825 15.0583 11.95 15.3083 12.125L18.075 14.0916C18.3833 14.3 18.6083 14.5666 18.7417 14.8833C18.8667 15.2 18.925 15.4916 18.925 15.7833C18.925 16.1833 18.8333 16.5833 18.6583 16.9583C18.4833 17.3333 18.2667 17.6583 17.9917 17.9583C17.5167 18.4833 17 18.8583 16.4 19.1C15.825 19.3333 15.2 19.4583 14.5417 19.4583ZM4.65834 2.79163C4.2 2.79163 3.775 2.99163 3.36667 3.39163C2.98334 3.74996 2.71667 4.14163 2.55 4.56663C2.375 4.99996 2.29167 5.45829 2.29167 5.94996C2.29167 6.72496 2.47501 7.56663 2.84167 8.43329C3.21667 9.31663 3.74167 10.2333 4.40834 11.15C5.075 12.0666 5.83334 12.9583 6.66667 13.8C7.5 14.625 8.4 15.3916 9.325 16.0666C10.225 16.725 11.15 17.2583 12.0667 17.6416C13.4917 18.25 14.825 18.3916 15.925 17.9333C16.35 17.7583 16.725 17.4916 17.0667 17.1083C17.2583 16.9 17.4083 16.675 17.5333 16.4083C17.6333 16.2 17.6833 15.9833 17.6833 15.7666C17.6833 15.6333 17.6583 15.5 17.5917 15.35C17.5667 15.3 17.5167 15.2083 17.3583 15.1L14.5917 13.1333C14.425 13.0166 14.275 12.9333 14.1333 12.875C13.95 12.8 13.875 12.725 13.5917 12.9C13.425 12.9833 13.275 13.1083 13.1083 13.275L12.475 13.9C12.15 14.2166 11.65 14.2916 11.2667 14.15L11.0417 14.05C10.7 13.8666 10.3 13.5833 9.85834 13.2083C9.45834 12.8666 9.025 12.4666 8.5 11.95C8.09167 11.5333 7.68334 11.0916 7.25834 10.6C6.86667 10.1416 6.58334 9.74996 6.40834 9.42496L6.30834 9.17496C6.25834 8.98329 6.24167 8.87496 6.24167 8.75829C6.24167 8.45829 6.35 8.19163 6.55834 7.98329L7.18334 7.33329C7.35 7.16663 7.475 7.00829 7.55834 6.86663C7.625 6.75829 7.65 6.66663 7.65 6.58329C7.65 6.51663 7.625 6.41663 7.58334 6.31663C7.525 6.18329 7.43334 6.03329 7.31667 5.87496L5.38334 3.14163C5.3 3.02496 5.20001 2.94163 5.07501 2.88329C4.94167 2.82496 4.8 2.79163 4.65834 2.79163ZM11.625 13.0083L11.4917 13.575L11.7167 12.9916C11.675 12.9833 11.6417 12.9916 11.625 13.0083Z" fill="#CBCBCB"/>
<path d="M15.4167 8.62504C15.075 8.62504 14.7917 8.34171 14.7917 8.00004C14.7917 7.70004 14.4917 7.07504 13.9917 6.54171C13.5 6.01671 12.9583 5.70837 12.5 5.70837C12.1583 5.70837 11.875 5.42504 11.875 5.08337C11.875 4.74171 12.1583 4.45837 12.5 4.45837C13.3083 4.45837 14.1583 4.89171 14.9 5.68337C15.5917 6.42504 16.0417 7.33337 16.0417 8.00004C16.0417 8.34171 15.7583 8.62504 15.4167 8.62504Z" fill="#CBCBCB"/>
<path d="M18.3333 8.62496C17.9917 8.62496 17.7083 8.34163 17.7083 7.99996C17.7083 5.12496 15.375 2.79163 12.5 2.79163C12.1583 2.79163 11.875 2.50829 11.875 2.16663C11.875 1.82496 12.1583 1.54163 12.5 1.54163C16.0583 1.54163 18.9583 4.44163 18.9583 7.99996C18.9583 8.34163 18.675 8.62496 18.3333 8.62496Z" fill="#CBCBCB"/>
</svg>
