<svg width="32" height="32" viewBox="0 0 32 32" fill="none" xmlns="http://www.w3.org/2000/svg">
<path fill-rule="evenodd" clip-rule="evenodd" d="M24 5.33329H7.99999C6.52723 5.33329 5.33332 6.5272 5.33332 7.99996V24C5.33332 25.4728 6.52723 26.6666 7.99999 26.6666H24C25.4728 26.6666 26.6667 25.4728 26.6667 24V7.99996C26.6667 6.5272 25.4728 5.33329 24 5.33329ZM7.99999 2.66663C5.05447 2.66663 2.66666 5.05444 2.66666 7.99996V24C2.66666 26.9454 5.05447 29.3333 7.99999 29.3333H24C26.9455 29.3333 29.3333 26.9454 29.3333 24V7.99996C29.3333 5.05444 26.9455 2.66663 24 2.66663H7.99999Z" fill="white"/>
<path fill-rule="evenodd" clip-rule="evenodd" d="M15.8889 13.3334C15.8889 11.1242 17.6797 9.33337 19.8889 9.33337H22.6667V12H19.8889C19.1525 12 18.5556 12.597 18.5556 13.3334V16H22.6667V18.6667H18.5556V26.6667H15.8889V18.6667H13.3333V16H15.8889V13.3334Z" fill="white"/>
</svg>
