<svg width="41" height="44" viewBox="0 0 41 44" fill="none" xmlns="http://www.w3.org/2000/svg">
<path d="M20.4997 29.2147C24.6007 29.2147 27.9252 25.8902 27.9252 21.7892C27.9252 17.6883 24.6007 14.3638 20.4997 14.3638C16.3988 14.3638 13.0743 17.6883 13.0743 21.7892C13.0743 25.8902 16.3988 29.2147 20.4997 29.2147Z" fill="#AECDFB"/>
<path d="M20.4997 43.7703C20.4438 43.7703 20.3874 43.7606 20.3319 43.7402C8.27118 39.3101 1.59956 28.0776 0.500915 10.3548C0.486324 10.118 0.644871 9.90498 0.875883 9.851C6.38953 8.569 11.2714 6.5575 15.3849 3.87192C15.6101 3.72505 15.9111 3.78827 16.058 4.01345C16.2049 4.23862 16.1416 4.54015 15.9165 4.68654C11.8078 7.36871 6.95855 9.39238 1.49791 10.7036C2.65735 28.0056 8.93017 38.5164 20.667 42.8278C20.9194 42.9202 21.0483 43.1999 20.9559 43.4518C20.8839 43.6483 20.6977 43.7703 20.4997 43.7703Z" fill="#0C0C0C"/>
<path d="M20.5002 43.7703C20.4019 43.7703 20.3047 43.7402 20.222 43.6828C20.0916 43.5919 20.0138 43.443 20.0138 43.284V31.5272C20.0138 31.2583 20.2317 31.0409 20.5002 31.0409C20.7686 31.0409 20.9865 31.2583 20.9865 31.5272V42.5788C32.3022 38.12 38.3639 27.6807 39.5015 10.7036C32.0741 8.92063 25.8533 5.85571 20.9865 1.5832V8.24947C20.9865 8.51793 20.7686 8.73582 20.5002 8.73582C20.2317 8.73582 20.0138 8.51793 20.0138 8.24947V0.486018C20.0138 0.292455 20.1286 0.116886 20.3066 0.0400437C20.4846 -0.0367982 20.6913 -0.00129529 20.8323 0.131476C25.7711 4.75317 32.2613 8.02381 40.124 9.85148C40.3555 9.90547 40.5141 10.1185 40.499 10.3553C39.4003 28.0776 32.7287 39.3106 20.668 43.7402C20.6135 43.7601 20.5566 43.7703 20.5002 43.7703Z" fill="#0C0C0C"/>
<path d="M20.4997 32.0135C18.1225 32.0135 15.8114 31.1741 13.991 29.6509C13.7853 29.4787 13.7581 29.1718 13.9302 28.9661C14.1024 28.7599 14.4088 28.7322 14.6155 28.9053C16.2608 30.2826 18.3506 31.0413 20.4997 31.0413C25.5567 31.0413 29.6707 26.9274 29.6707 21.8704C29.6707 16.8134 25.5567 12.6985 20.4997 12.6985C15.4428 12.6985 11.3283 16.8125 11.3283 21.8699C11.3283 22.1384 11.1104 22.3563 10.842 22.3563C10.5735 22.3563 10.3556 22.1384 10.3556 21.8699C10.3556 16.2765 14.9063 11.7258 20.4997 11.7258C26.0931 11.7258 30.6433 16.2765 30.6433 21.8699C30.6433 27.4633 26.0931 32.0135 20.4997 32.0135Z" fill="#0C0C0C"/>
<path d="M19.8771 25.6152C19.7375 25.6152 19.6042 25.5548 19.5123 25.4503L16.3501 21.8567C16.1726 21.6549 16.1921 21.348 16.3939 21.1705C16.5957 20.9925 16.9031 21.0129 17.0801 21.2143L19.8747 24.3891L25.2059 18.2286C25.381 18.0253 25.6889 18.0039 25.8917 18.179C26.0949 18.3551 26.1168 18.6619 25.9413 18.8652L20.2448 25.4469C20.1528 25.5534 20.0196 25.6147 19.879 25.6152C19.8785 25.6152 19.8776 25.6152 19.8771 25.6152Z" fill="#0C0C0C"/>
</svg>
