<svg width="26" height="26" viewBox="0 0 26 26" fill="none" xmlns="http://www.w3.org/2000/svg">
<path d="M25.9272 7.63971C25.8648 6.2554 25.6411 5.30825 25.3239 4.48078C24.991 3.6273 24.5489 2.89872 23.826 2.18054C23.103 1.46237 22.3801 1.00961 21.5271 0.681745C20.7001 0.359087 19.7535 0.140512 18.3701 0.0780625C16.9814 0.0156125 16.5393 0 13.013 0C9.48149 0 9.0394 0.0156125 7.65592 0.0780625C6.27245 0.140512 5.32586 0.364291 4.49889 0.681745C3.64072 1.01481 2.91257 1.45717 2.19483 2.18054C1.47709 2.90392 1.0246 3.6273 0.696931 4.48078C0.379667 5.30825 0.156023 6.2554 0.0936101 7.63971C0.0311976 9.02922 0.0155945 9.47158 0.0155945 13C0.0155945 16.5336 0.0311976 16.976 0.0936101 18.3603C0.156023 19.7446 0.379667 20.6918 0.696931 21.5192C1.0298 22.3727 1.47189 23.1013 2.19483 23.8195C2.91257 24.5428 3.64072 24.9904 4.49369 25.3183C5.32066 25.6409 6.26724 25.8595 7.65072 25.9219C9.0394 25.9844 9.48149 26 13.0078 26C16.5393 26 16.9814 25.9844 18.3649 25.9219C19.7483 25.8595 20.6949 25.6357 21.5219 25.3183C22.3749 24.9852 23.103 24.5428 23.8208 23.8195C24.5385 23.0961 24.991 22.3727 25.3187 21.5192C25.6411 20.6918 25.8596 19.7446 25.922 18.3603C25.9844 16.9708 26 16.5284 26 13C26 9.47158 25.9896 9.02402 25.9272 7.63971ZM23.5919 18.2562C23.5347 19.526 23.3215 20.2182 23.1446 20.6709C22.9106 21.2746 22.6245 21.7118 22.1668 22.1697C21.7091 22.6277 21.2774 22.9035 20.6689 23.1481C20.2112 23.3251 19.5195 23.5384 18.2556 23.5957C16.8878 23.6581 16.4769 23.6737 13.0026 23.6737C9.5283 23.6737 9.11741 23.6581 7.74954 23.5957C6.48049 23.5384 5.78875 23.3251 5.33626 23.1481C4.73294 22.9139 4.29605 22.6277 3.83836 22.1697C3.38067 21.7118 3.10501 21.2798 2.86056 20.6709C2.68373 20.213 2.47049 19.5208 2.41327 18.2562C2.35086 16.8875 2.33526 16.4764 2.33526 13C2.33526 9.52362 2.35086 9.11249 2.41327 7.7438C2.47049 6.47398 2.68373 5.78183 2.86056 5.32906C3.09461 4.72538 3.38067 4.28823 3.83836 3.83026C4.29605 3.3723 4.72774 3.09648 5.33626 2.85188C5.79395 2.67494 6.48569 2.46157 7.74954 2.40432C9.11741 2.34187 9.5283 2.32626 13.0026 2.32626C16.4769 2.32626 16.8878 2.34187 18.2556 2.40432C19.5247 2.46157 20.2164 2.67494 20.6689 2.85188C21.2722 3.08607 21.7091 3.3723 22.1668 3.83026C22.6245 4.28823 22.9002 4.72018 23.1446 5.32906C23.3215 5.78703 23.5347 6.47918 23.5919 7.7438C23.6543 9.11249 23.6699 9.52362 23.6699 13C23.6699 16.4764 23.6491 16.8875 23.5919 18.2562Z" fill="white"/>
<path d="M13.0026 6.31787C9.30989 6.31787 6.32449 9.31026 6.32449 13C6.32449 16.695 9.31509 19.6822 13.0026 19.6822C16.6902 19.6822 19.6808 16.6846 19.6808 13C19.6808 9.30506 16.6954 6.31787 13.0026 6.31787ZM13.0026 17.3351C10.6102 17.3351 8.67016 15.3939 8.67016 13C8.67016 10.6061 10.6102 8.66495 13.0026 8.66495C15.3951 8.66495 17.3351 10.6061 17.3351 13C17.3351 15.3939 15.3951 17.3351 13.0026 17.3351Z" fill="white"/>
<path d="M19.9408 7.61884C20.8025 7.61884 21.5011 6.91984 21.5011 6.05759C21.5011 5.19533 20.8025 4.49634 19.9408 4.49634C19.0791 4.49634 18.3805 5.19533 18.3805 6.05759C18.3805 6.91984 19.0791 7.61884 19.9408 7.61884Z" fill="white"/>
<path d="M0 13C0 16.5336 0.0156031 16.976 0.0780156 18.3603C0.140428 19.7446 0.364073 20.6918 0.681336 21.5192C1.0142 22.3727 1.45629 23.1013 2.17924 23.8195C2.89698 24.5376 3.62512 24.9904 4.4781 25.3183C5.30506 25.6409 6.25165 25.8595 7.63513 25.9219C9.0238 25.9844 9.46589 26 12.9922 26C16.5237 26 16.9658 25.9844 18.3493 25.9219C19.7327 25.8595 20.6793 25.6357 21.5063 25.3183C22.3593 24.9852 23.0874 24.5428 23.8052 23.8195C24.5229 23.1013 24.9754 22.3727 25.3031 21.5192C25.6255 20.6918 25.844 19.7446 25.9064 18.3603C25.9688 16.9708 25.9844 16.5284 25.9844 13C25.9844 9.46637 25.9688 9.02402 25.9064 7.63971C25.844 6.2554 25.6203 5.30825 25.3031 4.48078C24.9702 3.6273 24.5281 2.89872 23.8052 2.18054C23.0926 1.45717 22.3645 1.00961 21.5115 0.681745C20.6845 0.359087 19.7379 0.140512 18.3545 0.0780625C16.9658 0.0156125 16.5237 0 12.9974 0C9.46589 0 9.0238 0.0156125 7.64033 0.0780625C6.25685 0.140512 5.31026 0.364291 4.4833 0.681745C3.63033 1.01481 2.90218 1.45717 2.18444 2.18054C1.46669 2.90392 1.0142 3.6273 0.686537 4.48078C0.364073 5.30825 0.140428 6.2554 0.0780156 7.63971C0.0156031 9.02402 0 9.46637 0 13ZM2.34567 13C2.34567 9.52882 2.36127 9.11249 2.42368 7.7438C2.4809 6.47398 2.69414 5.78183 2.87097 5.32906C3.10502 4.72538 3.39108 4.28823 3.84877 3.83026C4.30646 3.3723 4.73815 3.09648 5.34667 2.85188C5.80436 2.67494 6.4961 2.46157 7.75995 2.40432C9.12783 2.34187 9.53871 2.32626 13.013 2.32626C16.4873 2.32626 16.8982 2.34187 18.2661 2.40432C19.5351 2.46157 20.2268 2.67494 20.6793 2.85188C21.2827 3.08607 21.7195 3.3723 22.1772 3.83026C22.6349 4.28823 22.9106 4.72018 23.155 5.32906C23.3319 5.78703 23.5451 6.47918 23.6023 7.7438C23.6647 9.11249 23.6803 9.52362 23.6803 13C23.6803 16.4764 23.6647 16.8875 23.6023 18.2562C23.5451 19.526 23.3319 20.2182 23.155 20.6709C22.921 21.2746 22.6349 21.7118 22.1772 22.1697C21.7195 22.6277 21.2879 22.9035 20.6793 23.1481C20.2216 23.3251 19.5299 23.5384 18.2661 23.5957C16.8982 23.6581 16.4873 23.6737 13.013 23.6737C9.53871 23.6737 9.12783 23.6581 7.75995 23.5957C6.4909 23.5384 5.79916 23.3251 5.34667 23.1481C4.74335 22.9139 4.30646 22.6277 3.84877 22.1697C3.39108 21.7118 3.11542 21.2798 2.87097 20.6709C2.69414 20.213 2.4809 19.5208 2.42368 18.2562C2.35607 16.8875 2.34567 16.4712 2.34567 13Z" fill="white"/>
</svg>
