<svg width="20" height="20" viewBox="0 0 20 20" fill="none" xmlns="http://www.w3.org/2000/svg">
<path d="M10 11.8084C8.22503 11.8084 6.77503 10.3667 6.77503 8.58337C6.77503 6.80003 8.22503 5.3667 10 5.3667C11.775 5.3667 13.225 6.80837 13.225 8.5917C13.225 10.375 11.775 11.8084 10 11.8084ZM10 6.6167C8.9167 6.6167 8.02503 7.50003 8.02503 8.5917C8.02503 9.68337 8.90837 10.5667 10 10.5667C11.0917 10.5667 11.975 9.68337 11.975 8.5917C11.975 7.50003 11.0834 6.6167 10 6.6167Z" fill="#CBCBCB"/>
<path d="M10 18.9666C8.76668 18.9666 7.52501 18.5 6.55834 17.575C4.10001 15.2083 1.38334 11.4333 2.40834 6.94163C3.33334 2.86663 6.89168 1.04163 10 1.04163C10 1.04163 10 1.04163 10.0083 1.04163C13.1167 1.04163 16.675 2.86663 17.6 6.94996C18.6167 11.4416 15.9 15.2083 13.4417 17.575C12.475 18.5 11.2333 18.9666 10 18.9666ZM10 2.29163C7.57501 2.29163 4.45834 3.58329 3.63334 7.21663C2.73334 11.1416 5.20001 14.525 7.43334 16.6666C8.87501 18.0583 11.1333 18.0583 12.575 16.6666C14.8 14.525 17.2667 11.1416 16.3833 7.21663C15.55 3.58329 12.425 2.29163 10 2.29163Z" fill="#CBCBCB"/>
</svg>
