<svg width="40" height="34" viewBox="0 0 40 34" fill="none" xmlns="http://www.w3.org/2000/svg">
<path d="M34.4427 23.0991H5.55737C4.20626 23.0991 3.11115 22.004 3.11115 20.6529V5.55731C3.11115 4.2062 4.20626 3.11108 5.55737 3.11108H34.4423C35.7934 3.11108 36.8885 4.2062 36.8885 5.55731V20.6524C36.8889 22.004 35.7938 23.0991 34.4427 23.0991Z" fill="#AECDFB"/>
<path d="M24.0196 15.1742H9.2556C9.01027 15.1742 8.81116 14.9751 8.81116 14.7297C8.81116 14.4844 9.01027 14.2853 9.2556 14.2853H24.0196C24.2654 14.2853 24.464 14.4844 24.464 14.7297C24.464 14.9751 24.2654 15.1742 24.0196 15.1742Z" fill="#0C0C0C"/>
<path d="M23.008 11.0218H5.74132C5.49599 11.0218 5.29688 10.8227 5.29688 10.5774C5.29688 10.332 5.49599 10.1329 5.74132 10.1329H23.008C23.2538 10.1329 23.4524 10.332 23.4524 10.5774C23.4524 10.8227 23.2533 11.0218 23.008 11.0218Z" fill="#0C0C0C"/>
<path d="M11.272 26.2102H2.44178C1.09556 26.2102 0 25.1147 0 23.7684V2.44178C0 1.09556 1.09556 0 2.44178 0H37.5582C38.9044 0 40 1.09556 40 2.44178V4.15822C40 4.40355 39.8013 4.60266 39.5555 4.60266C39.3098 4.60266 39.1111 4.40355 39.1111 4.15822V2.44178C39.1111 1.58533 38.4146 0.888888 37.5582 0.888888H2.44178C1.58533 0.888888 0.888889 1.58533 0.888889 2.44178V23.768C0.888889 24.6244 1.58533 25.3209 2.44178 25.3209H11.272C11.5173 25.3209 11.7164 25.5195 11.7164 25.7653C11.7164 26.0111 11.5173 26.2102 11.272 26.2102Z" fill="#0C0C0C"/>
<path d="M20.3636 26.2102H16.4929C16.2476 26.2102 16.0485 26.0115 16.0485 25.7657C16.0485 25.52 16.2476 25.3213 16.4929 25.3213H20.3636C20.6093 25.3213 20.808 25.52 20.808 25.7657C20.808 26.0115 20.6093 26.2102 20.3636 26.2102Z" fill="#0C0C0C"/>
<path d="M37.5582 26.2102H24.2342C23.9884 26.2102 23.7898 26.0115 23.7898 25.7657C23.7898 25.52 23.9884 25.3213 24.2342 25.3213H37.5582C38.4146 25.3213 39.1111 24.6249 39.1111 23.7684V21.9009H4.56755C4.32222 21.9009 4.12311 21.7022 4.12311 21.4564C4.12311 21.2106 4.32222 21.012 4.56755 21.012H39.5555C39.8013 21.012 40 21.2106 40 21.4564V23.7684C40 25.1146 38.9044 26.2102 37.5582 26.2102Z" fill="#0C0C0C"/>
<path d="M29.1378 33.6338H11.5898C11.3444 33.6338 11.1453 33.4351 11.1453 33.1893C11.1453 31.4134 12.5902 29.9685 14.3667 29.9685H14.6835L16.0698 25.6302C16.1444 25.3969 16.396 25.2662 16.6284 25.3427C16.8622 25.4174 16.9911 25.6671 16.9164 25.9014L15.4315 30.5485C15.3729 30.7325 15.2013 30.8574 15.008 30.8574H14.3662C13.232 30.8574 12.2844 31.6707 12.0764 32.7449H28.6502C28.4422 31.6707 27.4942 30.8574 26.3604 30.8574H25.7191C25.5258 30.8574 25.3547 30.7325 25.296 30.5485L23.8111 25.9014C23.736 25.6676 23.8653 25.4174 24.0987 25.3427C24.3338 25.2649 24.5827 25.3969 24.6573 25.6302L26.0435 29.9685H26.3604C28.1369 29.9685 29.5818 31.4134 29.5818 33.1893C29.5822 33.4351 29.3831 33.6338 29.1378 33.6338Z" fill="#0C0C0C"/>
<path d="M20.8147 23.7733H19.9125C19.6671 23.7733 19.468 23.5746 19.468 23.3288C19.468 23.0831 19.6671 22.8844 19.9125 22.8844H20.8147C21.0605 22.8844 21.2591 23.0831 21.2591 23.3288C21.2591 23.5746 21.0605 23.7733 20.8147 23.7733Z" fill="#0C0C0C"/>
<path d="M35.6884 14.373C35.6212 14.373 35.5537 14.357 35.4916 14.3244L32.706 12.8598L29.92 14.3244C29.7781 14.3996 29.6053 14.3874 29.4752 14.2923C29.3451 14.1977 29.28 14.0376 29.307 13.8792L29.8389 10.7768L27.5856 8.58011C27.4707 8.46774 27.4289 8.30003 27.4787 8.14711C27.5286 7.99419 27.6608 7.88266 27.8196 7.85943L30.9343 7.407L32.3275 4.58468C32.4694 4.29615 32.943 4.29615 33.0849 4.58468L34.4781 7.407L37.5923 7.85943C37.7516 7.88266 37.8834 7.99419 37.9337 8.14711C37.9831 8.30003 37.9421 8.46774 37.8268 8.58011L35.5731 10.7768L36.1049 13.8792C36.132 14.0376 36.0669 14.1977 35.9372 14.2923C35.8629 14.346 35.7759 14.373 35.6884 14.373ZM28.7883 8.57293L30.5879 10.3273C30.6872 10.4241 30.7328 10.5643 30.7091 10.7012L30.2841 13.1784L32.5091 12.0086C32.6329 11.9436 32.7791 11.9436 32.9028 12.0086L35.1274 13.1784L34.7029 10.7012C34.6792 10.5643 34.7248 10.4245 34.8241 10.3273L36.6241 8.57293L34.1368 8.21175C33.9991 8.19189 33.8804 8.10529 33.8187 7.98067L32.706 5.72611L31.5933 7.97983C31.5316 8.10445 31.4129 8.19104 31.2752 8.2109L28.7883 8.57293Z" fill="#0C0C0C"/>
</svg>
