<svg width="32" height="24" viewBox="0 0 32 24" fill="none" xmlns="http://www.w3.org/2000/svg">
<g style="mix-blend-mode:luminosity">
<g clip-path="url(#clip0_256_4116)">
<path d="M0 0H32V24H0V0Z" fill="white"/>
<path d="M28.4444 0H3.55556C1.59188 0 0 1.79086 0 4V20C0 22.2091 1.59188 24 3.55556 24H28.4444C30.4081 24 32 22.2091 32 20V4C32 1.79086 30.4081 0 28.4444 0Z" fill="white"/>
<path d="M28.4442 0.499756H3.55526C1.83704 0.499756 0.444153 2.06676 0.444153 3.99976V19.9998C0.444153 21.9328 1.83704 23.4998 3.55526 23.4998H28.4442C30.1624 23.4998 31.5553 21.9328 31.5553 19.9998V3.99976C31.5553 2.06676 30.1624 0.499756 28.4442 0.499756Z" stroke="#333333" stroke-opacity="0.07" stroke-width="0.970471"/>
<path d="M7.12246 8.61212C6.90583 8.40214 6.64624 8.24166 6.36157 8.14175C6.07691 8.04183 5.77395 8.00487 5.47362 8.03339H3.28972C3.21339 8.03488 3.13999 8.06296 3.08217 8.1128C3.02435 8.16265 2.98575 8.23111 2.97305 8.30638L2.00122 14.0718C1.99813 14.0995 2.00093 14.1274 2.00941 14.1538C2.01789 14.1803 2.03188 14.2045 2.05046 14.2252C2.06902 14.2458 2.09175 14.2623 2.11714 14.2735C2.14253 14.2848 2.17001 14.2905 2.19777 14.2902H3.28972C3.35504 14.2874 3.41803 14.2651 3.47057 14.2262C3.52311 14.1873 3.5628 14.1335 3.58455 14.0718L3.82477 12.4994C3.83289 12.4242 3.86864 12.3545 3.92512 12.3042C3.98161 12.2538 4.05479 12.226 4.13052 12.2265H4.84029C5.15424 12.2627 5.47231 12.2341 5.77469 12.1422C6.07708 12.0502 6.35733 11.8971 6.59801 11.6923C6.83869 11.4874 7.03466 11.2353 7.17373 10.9515C7.31279 10.6677 7.39197 10.3583 7.40637 10.0426C7.46789 9.79796 7.47433 9.5428 7.42522 9.29543C7.37613 9.04806 7.27272 8.81467 7.12246 8.61212ZM5.73568 10.1299C5.61557 10.938 4.99316 10.938 4.40351 10.938H4.065L4.29431 9.42017C4.30178 9.37572 4.3243 9.33519 4.35809 9.30537C4.39189 9.27556 4.43491 9.25825 4.47994 9.25637H4.63282C5.03684 9.25637 5.42994 9.25637 5.61557 9.48568C5.68354 9.57672 5.72972 9.68215 5.75055 9.79381C5.77137 9.90551 5.76628 10.0205 5.73568 10.1299Z" fill="#253B80"/>
<path d="M12.222 10.0965H11.13C11.0856 10.0989 11.0429 10.1148 11.0078 10.1423C10.9727 10.1696 10.9467 10.2069 10.9335 10.2494V10.566L10.857 10.4459C10.6917 10.2796 10.4909 10.1528 10.2697 10.0753C10.0484 9.99779 9.81238 9.97137 9.57947 9.99823C8.98206 10.0121 8.40956 10.2403 7.96655 10.6413C7.52352 11.0422 7.23946 11.5891 7.16623 12.1821C7.111 12.4733 7.11847 12.773 7.18814 13.061C7.2578 13.3491 7.38807 13.619 7.57025 13.8528C7.74107 14.0419 7.9529 14.1893 8.18942 14.284C8.42605 14.3787 8.68112 14.4179 8.93522 14.3988C9.21203 14.4017 9.48665 14.3481 9.74206 14.2411C9.99736 14.134 10.2282 13.9759 10.4203 13.7764V14.093C10.4171 14.1435 10.4336 14.1932 10.466 14.2317C10.4986 14.2704 10.5448 14.295 10.595 14.3005H11.5668C11.6427 14.304 11.7172 14.2791 11.7757 14.2306C11.8342 14.1822 11.8727 14.1137 11.8835 14.0384L12.4622 10.3149C12.4744 10.2821 12.4766 10.2465 12.4684 10.2125C12.4602 10.1785 12.442 10.1477 12.4161 10.1242C12.3903 10.1008 12.3579 10.0855 12.3233 10.0806C12.2887 10.0756 12.2533 10.0812 12.222 10.0965ZM9.49211 13.2522C9.35857 13.2597 9.22513 13.238 9.10076 13.1891C8.97628 13.1401 8.86403 13.0647 8.77143 12.9683C8.69161 12.8575 8.63504 12.7317 8.60502 12.5985C8.57499 12.4653 8.57215 12.3274 8.59672 12.193C8.63122 11.8947 8.77339 11.6192 8.99648 11.4182C9.21967 11.2172 9.50838 11.1045 9.80878 11.1011C9.94407 11.095 10.079 11.1192 10.2038 11.1722C10.3285 11.225 10.4398 11.3053 10.5295 11.4068C10.6188 11.5105 10.6821 11.6337 10.7144 11.7666C10.7468 11.8995 10.747 12.0382 10.7151 12.1712C10.6824 12.4714 10.5391 12.7485 10.3128 12.9485C10.0866 13.1484 9.79393 13.2567 9.49211 13.2522Z" fill="#253B80"/>
<path d="M17.9655 10.0966H16.8735C16.8214 10.0959 16.7699 10.1087 16.724 10.1335C16.6782 10.1584 16.6394 10.1946 16.6114 10.2386L15.1155 12.4225L14.4821 10.2932C14.4616 10.2277 14.4211 10.1704 14.3662 10.1294C14.3114 10.0882 14.245 10.0653 14.1764 10.0638H13.0844C13.0544 10.0637 13.0247 10.0708 12.998 10.0847C12.9712 10.0986 12.9483 10.1188 12.9311 10.1434C12.9139 10.1682 12.903 10.1967 12.8992 10.2267C12.8955 10.2565 12.8991 10.2868 12.9097 10.315L14.1 13.8529L13.008 15.4472C12.9878 15.4751 12.9757 15.5081 12.9731 15.5425C12.9704 15.5768 12.9775 15.6113 12.9934 15.6418C13.0092 15.6724 13.0333 15.6981 13.0629 15.7158C13.0925 15.7335 13.1265 15.7425 13.1609 15.742H14.2528C14.3041 15.7449 14.3554 15.7343 14.4013 15.7114C14.4473 15.6884 14.4865 15.6537 14.5149 15.6109L18.1183 10.3587C18.1308 10.3317 18.1364 10.302 18.1349 10.2723C18.1334 10.2426 18.1249 10.2138 18.1099 10.188C18.0948 10.1623 18.074 10.1406 18.0489 10.1248C18.0236 10.1088 17.9952 10.0992 17.9655 10.0966Z" fill="#253B80"/>
<path d="M23.207 8.61171C22.9899 8.40233 22.7302 8.24224 22.4457 8.14237C22.1611 8.04249 21.8584 8.00517 21.5581 8.03298H19.2978C19.2232 8.03277 19.1514 8.06081 19.0966 8.11146C19.0419 8.16212 19.0084 8.23161 19.003 8.30596L18.0748 14.0714C18.0716 14.099 18.0745 14.127 18.083 14.1534C18.0914 14.1798 18.1055 14.2042 18.1241 14.2248C18.1426 14.2454 18.1653 14.2618 18.1907 14.2731C18.2161 14.2843 18.2435 14.29 18.2714 14.2898H19.4288C19.4812 14.2875 19.531 14.2663 19.5691 14.2302C19.6072 14.1941 19.631 14.1456 19.6363 14.0932L19.8984 12.4444C19.9086 12.37 19.9451 12.3018 20.0011 12.2518C20.057 12.2018 20.129 12.1734 20.2041 12.1714H20.9248C21.2382 12.2045 21.555 12.1735 21.856 12.0803C22.1571 11.9872 22.436 11.8339 22.6759 11.6297C22.916 11.4254 23.112 11.1746 23.2521 10.8923C23.392 10.61 23.4733 10.3022 23.4909 9.98752C23.5394 9.751 23.5391 9.50697 23.4903 9.27044C23.4415 9.0339 23.3451 8.80978 23.207 8.61171ZM21.8093 10.1622C21.7001 10.9703 21.0777 10.9703 20.4771 10.9703H20.1386L20.3788 9.45251C20.3801 9.42954 20.3861 9.40708 20.3962 9.38641C20.4062 9.36575 20.4203 9.34728 20.4376 9.33206C20.4548 9.31683 20.4749 9.30517 20.4966 9.29773C20.5185 9.2903 20.5414 9.28723 20.5644 9.28872H20.7282C21.1323 9.28872 21.5144 9.28872 21.711 9.51802C21.7704 9.60687 21.8099 9.70754 21.8269 9.81303C21.8439 9.91862 21.8379 10.0265 21.8093 10.1295V10.1622Z" fill="#179BD7"/>
<path d="M28.2953 10.097H27.2033C27.1579 10.0958 27.1136 10.1105 27.0778 10.1383C27.0419 10.1663 27.0168 10.2056 27.0068 10.2499V10.5666L26.9303 10.4464C26.7676 10.2796 26.5689 10.1524 26.3492 10.0747C26.1295 9.99711 25.895 9.97112 25.6637 9.99875C25.0663 10.0126 24.4938 10.2408 24.0508 10.6417C23.6078 11.0426 23.3236 11.5896 23.2505 12.1826C23.1892 12.4736 23.1937 12.7746 23.2637 13.0636C23.3336 13.3527 23.467 13.6224 23.6545 13.8533C23.8226 14.0428 24.0323 14.1907 24.2673 14.2855C24.5022 14.3802 24.7559 14.4192 25.0085 14.3993C25.287 14.4018 25.563 14.348 25.8201 14.241C26.0772 14.1341 26.31 13.9762 26.5045 13.7769V14.0936C26.5013 14.1197 26.5038 14.1462 26.5118 14.1713C26.5197 14.1964 26.5329 14.2196 26.5505 14.2391C26.568 14.2588 26.5895 14.2744 26.6136 14.2851C26.6377 14.2958 26.6638 14.3011 26.6901 14.301H27.662C27.736 14.3018 27.8078 14.2756 27.8641 14.2274C27.9203 14.1792 27.9571 14.1122 27.9677 14.039L28.5027 10.3154C28.5082 10.2865 28.5067 10.2567 28.4984 10.2285C28.4901 10.2002 28.4751 10.1744 28.4549 10.153C28.4346 10.1317 28.4096 10.1156 28.3819 10.1058C28.354 10.096 28.3244 10.093 28.2953 10.097ZM25.5763 13.2528C25.441 13.2609 25.3057 13.2399 25.1794 13.1908C25.0532 13.1418 24.939 13.0661 24.8447 12.9688C24.7645 12.8583 24.7084 12.7322 24.6802 12.5987C24.652 12.465 24.6522 12.327 24.6809 12.1936C24.7106 11.8952 24.8499 11.6184 25.0716 11.4168C25.2935 11.2151 25.5822 11.1028 25.8821 11.1016C26.0211 11.0894 26.161 11.111 26.2897 11.1647C26.4185 11.2185 26.5323 11.3026 26.6214 11.41C26.7105 11.5173 26.7723 11.6447 26.8014 11.7812C26.8304 11.9176 26.826 12.0591 26.7884 12.1936C26.7556 12.4898 26.6129 12.763 26.3885 12.9591C26.1641 13.1552 25.8742 13.26 25.5763 13.2528Z" fill="#179BD7"/>
<path d="M30.7958 8.00043H29.7038C29.6591 7.9973 29.615 8.0114 29.5805 8.03985C29.5459 8.06829 29.5236 8.1089 29.5182 8.1533L28.6446 14.0717C28.6398 14.0987 28.641 14.1264 28.6481 14.1528C28.6552 14.1792 28.6681 14.2038 28.6859 14.2247C28.7036 14.2455 28.7257 14.2622 28.7508 14.2736C28.7756 14.2848 28.8028 14.2905 28.8302 14.2901H29.7584C29.8324 14.2908 29.9043 14.2646 29.9605 14.2165C30.0168 14.1682 30.0536 14.1013 30.0641 14.028L30.9814 8.2079C30.9844 8.18176 30.9819 8.15525 30.9741 8.13014C30.9661 8.10504 30.9529 8.0819 30.9354 8.06228C30.9178 8.04265 30.8963 8.027 30.8722 8.01634C30.8482 8.00567 30.8221 8.00025 30.7958 8.00043Z" fill="#179BD7"/>
</g>
</g>
<defs>
<clipPath id="clip0_256_4116">
<rect width="32" height="24" rx="4" fill="white"/>
</clipPath>
</defs>
</svg>
