<svg width="16" height="17" viewBox="0 0 16 17" fill="none" xmlns="http://www.w3.org/2000/svg">
<path d="M13.3333 10.3334C12.32 10.3334 11.5 9.51335 11.5 8.50002C11.5 7.48669 12.32 6.66669 13.3333 6.66669C14.3467 6.66669 15.1667 7.48669 15.1667 8.50002C15.1667 9.51335 14.3467 10.3334 13.3333 10.3334ZM13.3333 7.66669C12.8733 7.66669 12.5 8.04002 12.5 8.50002C12.5 8.96002 12.8733 9.33335 13.3333 9.33335C13.7933 9.33335 14.1667 8.96002 14.1667 8.50002C14.1667 8.04002 13.7933 7.66669 13.3333 7.66669Z" fill="#505050"/>
<path d="M13.3333 4.99998C12.32 4.99998 11.5 4.17998 11.5 3.16665C11.5 2.15331 12.32 1.33331 13.3333 1.33331C14.3467 1.33331 15.1667 2.15331 15.1667 3.16665C15.1667 4.17998 14.3467 4.99998 13.3333 4.99998ZM13.3333 2.33331C12.8733 2.33331 12.5 2.70665 12.5 3.16665C12.5 3.62665 12.8733 3.99998 13.3333 3.99998C13.7933 3.99998 14.1667 3.62665 14.1667 3.16665C14.1667 2.70665 13.7933 2.33331 13.3333 2.33331Z" fill="#505050"/>
<path d="M13.3333 15.6667C12.32 15.6667 11.5 14.8467 11.5 13.8333C11.5 12.82 12.32 12 13.3333 12C14.3467 12 15.1667 12.82 15.1667 13.8333C15.1667 14.8467 14.3467 15.6667 13.3333 15.6667ZM13.3333 13C12.8733 13 12.5 13.3733 12.5 13.8333C12.5 14.2933 12.8733 14.6667 13.3333 14.6667C13.7933 14.6667 14.1667 14.2933 14.1667 13.8333C14.1667 13.3733 13.7933 13 13.3333 13Z" fill="#505050"/>
<path d="M2.66659 10.3334C1.65325 10.3334 0.833252 9.51335 0.833252 8.50002C0.833252 7.48669 1.65325 6.66669 2.66659 6.66669C3.67992 6.66669 4.49992 7.48669 4.49992 8.50002C4.49992 9.51335 3.67992 10.3334 2.66659 10.3334ZM2.66659 7.66669C2.20659 7.66669 1.83325 8.04002 1.83325 8.50002C1.83325 8.96002 2.20659 9.33335 2.66659 9.33335C3.12659 9.33335 3.49992 8.96002 3.49992 8.50002C3.49992 8.04002 3.12659 7.66669 2.66659 7.66669Z" fill="#505050"/>
<path d="M12 9H4C3.72667 9 3.5 8.77333 3.5 8.5C3.5 8.22667 3.72667 8 4 8H12C12.2733 8 12.5 8.22667 12.5 8.5C12.5 8.77333 12.2733 9 12 9Z" fill="#505050"/>
<path d="M11.9999 14.3334H9.33325C7.71992 14.3334 6.83325 13.4467 6.83325 11.8334V5.16669C6.83325 3.55335 7.71992 2.66669 9.33325 2.66669H11.9999C12.2733 2.66669 12.4999 2.89335 12.4999 3.16669C12.4999 3.44002 12.2733 3.66669 11.9999 3.66669H9.33325C8.27992 3.66669 7.83325 4.11335 7.83325 5.16669V11.8334C7.83325 12.8867 8.27992 13.3334 9.33325 13.3334H11.9999C12.2733 13.3334 12.4999 13.56 12.4999 13.8334C12.4999 14.1067 12.2733 14.3334 11.9999 14.3334Z" fill="#505050"/>
</svg>
