<svg width="16" height="17" viewBox="0 0 16 17" fill="none" xmlns="http://www.w3.org/2000/svg">
<path d="M10.3333 13.6666H5.66659C3.83992 13.6666 2.83325 12.66 2.83325 10.8333V6.16665C2.83325 4.33998 3.83992 3.33331 5.66659 3.33331H10.3333C12.1599 3.33331 13.1666 4.33998 13.1666 6.16665V10.8333C13.1666 12.66 12.1599 13.6666 10.3333 13.6666ZM5.66659 4.33331C4.37992 4.33331 3.83325 4.87998 3.83325 6.16665V10.8333C3.83325 12.12 4.37992 12.6666 5.66659 12.6666H10.3333C11.6199 12.6666 12.1666 12.12 12.1666 10.8333V6.16665C12.1666 4.87998 11.6199 4.33331 10.3333 4.33331H5.66659Z" fill="#505050"/>
<path d="M10.6666 2.33331H5.33325C5.05992 2.33331 4.83325 2.10665 4.83325 1.83331C4.83325 1.55998 5.05992 1.33331 5.33325 1.33331H10.6666C10.9399 1.33331 11.1666 1.55998 11.1666 1.83331C11.1666 2.10665 10.9399 2.33331 10.6666 2.33331Z" fill="#505050"/>
<path d="M10.6666 15.6667H5.33325C5.05992 15.6667 4.83325 15.44 4.83325 15.1667C4.83325 14.8934 5.05992 14.6667 5.33325 14.6667H10.6666C10.9399 14.6667 11.1666 14.8934 11.1666 15.1667C11.1666 15.44 10.9399 15.6667 10.6666 15.6667Z" fill="#505050"/>
<path d="M9.66675 9.33331H7.66675C7.39341 9.33331 7.16675 9.10665 7.16675 8.83331V6.83331C7.16675 6.55998 7.39341 6.33331 7.66675 6.33331C7.94008 6.33331 8.16675 6.55998 8.16675 6.83331V8.33331H9.66675C9.94008 8.33331 10.1667 8.55998 10.1667 8.83331C10.1667 9.10665 9.94008 9.33331 9.66675 9.33331Z" fill="#505050"/>
</svg>
