<svg width="16" height="17" viewBox="0 0 16 17" fill="none" xmlns="http://www.w3.org/2000/svg">
<path d="M4.34672 11.34C4.22006 11.34 4.09339 11.2933 3.99339 11.1933C3.80006 11 3.80006 10.68 3.99339 10.4867L6.02672 8.45335C6.22006 8.26002 6.54006 8.26002 6.73339 8.45335C6.92672 8.64668 6.92672 8.96668 6.73339 9.16002L4.70006 11.1933C4.60006 11.2867 4.47339 11.34 4.34672 11.34Z" fill="#505050"/>
<path d="M6.40007 11.36C6.27341 11.36 6.14674 11.3133 6.04674 11.2133L4.01341 9.17997C3.82007 8.98664 3.82007 8.66664 4.01341 8.47331C4.20674 8.27997 4.52674 8.27997 4.72007 8.47331L6.75341 10.5066C6.94674 10.7 6.94674 11.02 6.75341 11.2133C6.65341 11.3133 6.52674 11.36 6.40007 11.36Z" fill="#505050"/>
<path d="M9.02661 10.5C8.65994 10.5 8.35327 10.2 8.35327 9.83335C8.35327 9.46669 8.64661 9.16669 9.01327 9.16669H9.02661C9.39327 9.16669 9.69327 9.46669 9.69327 9.83335C9.69327 10.2 9.39994 10.5 9.02661 10.5Z" fill="#505050"/>
<path d="M11.6533 10.5C11.2866 10.5 10.98 10.2 10.98 9.83335C10.98 9.46669 11.2733 9.16669 11.64 9.16669H11.6533C12.02 9.16669 12.32 9.46669 12.32 9.83335C12.32 10.2 12.02 10.5 11.6533 10.5Z" fill="#505050"/>
<path d="M10.3334 11.8133C9.96675 11.8133 9.66675 11.52 9.66675 11.1533V11.14C9.66675 10.7733 9.96675 10.4733 10.3334 10.4733C10.7001 10.4733 11.0001 10.7733 11.0001 11.14C11.0001 11.5067 10.7067 11.8133 10.3334 11.8133Z" fill="#505050"/>
<path d="M10.3334 9.18668C9.96675 9.18668 9.66675 8.89335 9.66675 8.52668V8.51335C9.66675 8.14668 9.96675 7.84668 10.3334 7.84668C10.7001 7.84668 11.0001 8.14668 11.0001 8.51335C11.0001 8.88001 10.7067 9.18668 10.3334 9.18668Z" fill="#505050"/>
<path d="M9.99992 15.6667H5.99992C2.37992 15.6667 0.833252 14.12 0.833252 10.5V9.16667C0.833252 5.54667 2.37992 4 5.99992 4H9.99992C13.6199 4 15.1666 5.54667 15.1666 9.16667V10.5C15.1666 14.12 13.6199 15.6667 9.99992 15.6667ZM5.99992 5C2.92659 5 1.83325 6.09333 1.83325 9.16667V10.5C1.83325 13.5733 2.92659 14.6667 5.99992 14.6667H9.99992C13.0733 14.6667 14.1666 13.5733 14.1666 10.5V9.16667C14.1666 6.09333 13.0733 5 9.99992 5H5.99992Z" fill="#505050"/>
<path d="M8.65999 4.99998H7.99333C7.35333 4.99998 6.82666 4.47331 6.82666 3.83331C6.82666 3.19331 7.34666 2.66665 7.98666 2.66665C8.09333 2.66665 8.16666 2.59331 8.17333 2.49998L8.17999 1.82665C8.18666 1.55331 8.40666 1.33331 8.67999 1.33331H8.68666C8.95999 1.33998 9.18666 1.56665 9.17999 1.83998L9.17333 2.51331C9.16666 3.14665 8.63999 3.66665 8.00666 3.66665C7.89999 3.66665 7.83333 3.73998 7.83333 3.83331C7.83333 3.92665 7.90666 3.99998 7.99999 3.99998H8.66666C8.93999 3.99998 9.16666 4.22665 9.16666 4.49998C9.16666 4.77331 8.93333 4.99998 8.65999 4.99998Z" fill="#505050"/>
</svg>
