<svg width="16" height="17" viewBox="0 0 16 17" fill="none" xmlns="http://www.w3.org/2000/svg">
<path d="M11.7066 12.48H4.29325C1.63992 12.48 0.833252 11.6733 0.833252 9.01998V4.79331C0.833252 2.13998 1.63992 1.33331 4.29325 1.33331H11.6999C14.3533 1.33331 15.1599 2.13998 15.1599 4.79331V9.01331C15.1666 11.6733 14.3599 12.48 11.7066 12.48ZM4.29325 2.33331C2.19992 2.33331 1.83325 2.69998 1.83325 4.79331V9.01331C1.83325 11.1066 2.19992 11.4733 4.29325 11.4733H11.6999C13.7933 11.4733 14.1599 11.1066 14.1599 9.01331V4.79331C14.1599 2.69998 13.7933 2.33331 11.6999 2.33331H4.29325Z" fill="#505050"/>
<path d="M8 15.6666C7.72667 15.6666 7.5 15.44 7.5 15.1666V11.98C7.5 11.7066 7.72667 11.48 8 11.48C8.27333 11.48 8.5 11.7066 8.5 11.98V15.1666C8.5 15.44 8.27333 15.6666 8 15.6666Z" fill="#505050"/>
<path d="M14.6666 9.66669H1.33325C1.05992 9.66669 0.833252 9.44002 0.833252 9.16669C0.833252 8.89335 1.05992 8.66669 1.33325 8.66669H14.6666C14.9399 8.66669 15.1666 8.89335 15.1666 9.16669C15.1666 9.44002 14.9399 9.66669 14.6666 9.66669Z" fill="#505050"/>
<path d="M11 15.6667H5C4.72667 15.6667 4.5 15.44 4.5 15.1667C4.5 14.8934 4.72667 14.6667 5 14.6667H11C11.2733 14.6667 11.5 14.8934 11.5 15.1667C11.5 15.44 11.2733 15.6667 11 15.6667Z" fill="#505050"/>
</svg>
