<svg width="16" height="17" viewBox="0 0 16 17" fill="none" xmlns="http://www.w3.org/2000/svg">
<path d="M7.99979 13.4467C6.97312 13.4467 5.94646 13.0533 5.16646 12.2733C3.59979 10.7067 3.59979 8.1667 5.16646 6.60004C5.92646 5.84004 6.93312 5.4267 7.99979 5.4267C9.06645 5.4267 10.0798 5.8467 10.8331 6.60004C12.3998 8.1667 12.3998 10.7067 10.8331 12.2733C10.0531 13.0533 9.02645 13.4467 7.99979 13.4467ZM7.99979 6.43337C7.19979 6.43337 6.43979 6.74667 5.87312 7.31333C4.69979 8.48667 4.69979 10.3933 5.87312 11.5667C7.04645 12.74 8.95312 12.7333 10.1265 11.5667C11.2998 10.3933 11.2998 8.48667 10.1265 7.31333C9.55979 6.74667 8.79979 6.43337 7.99979 6.43337Z" fill="#505050"/>
<path d="M6.93998 11C6.81332 11 6.67998 10.9534 6.58665 10.8534C6.39332 10.66 6.39332 10.34 6.58665 10.14L7.64665 9.08C7.83998 8.88666 8.15999 8.88666 8.35999 9.08C8.55332 9.27333 8.55332 9.59334 8.35999 9.79334L7.29999 10.8534C7.19332 10.9534 7.06665 11 6.93998 11Z" fill="#505050"/>
<path d="M12.5266 5.50669C12.3666 5.50669 12.22 5.44669 12.1066 5.33335C11.8733 5.10002 11.8733 4.72001 12.1066 4.49335C12.22 4.38001 12.3666 4.32001 12.5266 4.32001C12.6866 4.32001 12.8333 4.38001 12.9466 4.49335C13.06 4.60668 13.12 4.75335 13.12 4.91335C13.12 5.07335 13.06 5.22002 12.9466 5.33335C12.84 5.44669 12.6866 5.50669 12.5266 5.50669ZM12.48 4.86001V4.96002C12.4933 4.97336 12.5133 4.98 12.5333 4.98C12.6133 4.93333 12.6133 4.88667 12.58 4.86001H12.48Z" fill="#505050"/>
<path d="M12.5266 5.67336C12.3199 5.67336 12.1333 5.59334 11.9866 5.44668C11.6933 5.15334 11.6933 4.66668 11.9866 4.36668C12.1333 4.22001 12.3199 4.14667 12.5266 4.14667C12.7333 4.14667 12.9199 4.22669 13.0666 4.37335C13.2133 4.52002 13.2866 4.70668 13.2866 4.91335C13.2866 5.12002 13.2066 5.30668 13.0599 5.45335C12.9266 5.59335 12.7333 5.67336 12.5266 5.67336ZM12.3599 5.08002C12.4066 5.12668 12.4666 5.14667 12.5266 5.14667C12.5866 5.14667 12.6466 5.12002 12.6933 5.08002C12.7866 4.98668 12.7866 4.84002 12.6933 4.74668C12.6066 4.66002 12.4466 4.66002 12.3599 4.74668C12.3199 4.78668 12.2933 4.84668 12.2933 4.91335C12.2933 4.97335 12.3133 5.03335 12.3599 5.08002Z" fill="#505050"/>
<path d="M3.47321 14.56C3.31987 14.56 3.16654 14.5 3.0532 14.3867C2.93987 14.2734 2.87988 14.12 2.87988 13.9667C2.87988 13.8067 2.93987 13.66 3.0532 13.5467C3.16654 13.4334 3.31321 13.3734 3.47321 13.3734C3.63321 13.3734 3.77988 13.4334 3.89321 13.5467C4.12654 13.78 4.12654 14.16 3.89321 14.3867C3.77988 14.5 3.62654 14.56 3.47321 14.56ZM3.45988 13.9C3.44655 13.9 3.43321 13.9067 3.41988 13.92C3.39321 13.9467 3.39321 13.9934 3.41988 14.02C3.43321 14.0334 3.45322 14.04 3.46655 14.04L3.5332 13.9734C3.5132 13.9134 3.48655 13.9 3.45988 13.9Z" fill="#505050"/>
<path d="M3.47345 14.7267C3.28012 14.7267 3.08012 14.6534 2.93345 14.5067C2.78678 14.3601 2.70679 14.1667 2.70679 13.9667C2.70679 13.7601 2.78678 13.5734 2.93345 13.4267C3.07345 13.2867 3.26678 13.2067 3.47345 13.2067C3.68012 13.2067 3.86678 13.2867 4.01345 13.4334C4.31345 13.7334 4.31345 14.2134 4.01345 14.5134C3.86678 14.6534 3.66678 14.7267 3.47345 14.7267ZM3.47345 13.7267C3.41345 13.7267 3.35345 13.7467 3.30678 13.7934C3.21345 13.8867 3.21345 14.0334 3.30678 14.1267C3.35345 14.1734 3.41345 14.1934 3.47345 14.1934C3.53345 14.1934 3.60012 14.1667 3.64012 14.1201C3.68012 14.0801 3.70679 14.0201 3.70679 13.9534C3.70679 13.8934 3.68012 13.8267 3.64012 13.7867C3.59345 13.7534 3.53345 13.7267 3.47345 13.7267Z" fill="#505050"/>
<path d="M14.3999 10.0333C14.2466 10.0333 14.0933 9.97334 13.9799 9.86001C13.7466 9.62667 13.7466 9.2467 13.9799 9.01337C14.0933 8.90003 14.2466 8.87336 14.3999 8.84003C14.5599 8.84003 14.7066 8.90003 14.8199 9.01337C15.0533 9.2467 15.0533 9.62667 14.8199 9.86001C14.7066 9.97334 14.5533 10.0333 14.3999 10.0333ZM14.3533 9.48667C14.3666 9.50001 14.3866 9.50669 14.4066 9.50669C14.4799 9.46003 14.4799 9.41336 14.4533 9.3867C14.4266 9.36003 14.3799 9.36003 14.3533 9.3867C14.3266 9.41336 14.3266 9.46001 14.3533 9.48667Z" fill="#505050"/>
<path d="M14.4 10.2C14.2067 10.2 14.0067 10.1266 13.86 9.97998C13.56 9.67998 13.56 9.19998 13.86 8.89998C14.0067 8.75332 14.1933 8.67334 14.4 8.67334C14.6067 8.67334 14.7933 8.75332 14.94 8.89998C15.24 9.19998 15.24 9.67998 14.94 9.97998C14.7933 10.1266 14.6 10.2 14.4 10.2ZM14.2333 9.60665C14.28 9.65332 14.34 9.67334 14.4 9.67334C14.46 9.67334 14.52 9.64665 14.5667 9.60665C14.66 9.51332 14.66 9.36665 14.5667 9.27332C14.4733 9.17998 14.3267 9.17998 14.2333 9.27332C14.1467 9.35998 14.14 9.51332 14.2333 9.60665Z" fill="#505050"/>
<path d="M1.59989 10.0334C1.44655 10.0334 1.29322 9.97335 1.17988 9.86002C0.946549 9.62668 0.946549 9.24671 1.17988 9.01338C1.41322 8.78005 1.79323 8.78005 2.02656 9.01338C2.2599 9.24671 2.2599 9.62668 2.02656 9.86002C1.8999 9.97335 1.74655 10.0334 1.59989 10.0334ZM1.54656 9.48669C1.57323 9.51335 1.61989 9.51335 1.64656 9.48669C1.67322 9.46002 1.67322 9.41338 1.64656 9.38671C1.61989 9.36004 1.57323 9.36004 1.54656 9.38671C1.51989 9.41338 1.51989 9.46002 1.54656 9.48669Z" fill="#505050"/>
<path d="M1.59996 10.2C1.40663 10.2 1.20663 10.1267 1.05996 9.97999C0.759961 9.67999 0.759961 9.2 1.05996 8.9C1.35996 8.6 1.84662 8.60666 2.13996 8.9C2.43996 9.2 2.43996 9.67999 2.13996 9.97999C1.98662 10.1267 1.79329 10.2 1.59996 10.2ZM1.42664 9.60666C1.51997 9.7 1.66664 9.7 1.75997 9.60666C1.85331 9.51333 1.85331 9.36 1.75997 9.27333C1.66664 9.18 1.51997 9.18 1.42664 9.27333C1.33997 9.36 1.33997 9.51333 1.42664 9.60666Z" fill="#505050"/>
<path d="M12.5266 14.56C12.3733 14.56 12.22 14.5 12.1066 14.3867C11.8733 14.1533 11.8733 13.7733 12.1066 13.54C12.34 13.3067 12.72 13.3067 12.9533 13.54C13.0666 13.6533 13.1266 13.8 13.1266 13.96C13.1266 14.12 13.0666 14.2667 12.9533 14.38C12.8333 14.5 12.68 14.56 12.5266 14.56ZM12.5266 13.8933C12.5066 13.8933 12.4933 13.9 12.48 13.9133V14.0133C12.5066 14.04 12.5533 14.04 12.58 14.0133C12.6066 13.9867 12.6066 13.94 12.58 13.9133C12.56 13.9 12.5466 13.8933 12.5266 13.8933Z" fill="#505050"/>
<path d="M12.5267 14.7267C12.3334 14.7267 12.1334 14.6533 11.9867 14.5067C11.6867 14.2067 11.6867 13.7267 11.9867 13.4267C12.2867 13.1267 12.7667 13.1267 13.0667 13.4267C13.2134 13.5733 13.2934 13.76 13.2934 13.9667C13.2934 14.1733 13.2134 14.36 13.0667 14.5067C12.92 14.6533 12.7201 14.7267 12.5267 14.7267ZM12.3601 14.1333C12.4534 14.2267 12.6001 14.2267 12.6934 14.1333C12.7867 14.04 12.7867 13.8933 12.6934 13.8C12.6001 13.7067 12.4534 13.7067 12.3601 13.8C12.3134 13.8467 12.2934 13.9067 12.2934 13.9667C12.2934 14.0267 12.3134 14.0867 12.3601 14.1333Z" fill="#505050"/>
<path d="M3.47321 5.50669C3.31321 5.50669 3.16654 5.44669 3.0532 5.33335C2.93987 5.22002 2.87988 5.07335 2.87988 4.91335C2.87988 4.75335 2.93987 4.60668 3.0532 4.49335C3.16654 4.38001 3.31321 4.32001 3.47321 4.32001C3.63321 4.32001 3.77988 4.38001 3.89321 4.49335C4.12654 4.72668 4.12654 5.10669 3.89321 5.34003C3.77988 5.44669 3.63321 5.50669 3.47321 5.50669ZM3.41988 4.96002C3.43321 4.97336 3.45322 4.98 3.46655 4.98L3.5332 4.91335L3.46655 4.8467C3.39322 4.8867 3.39321 4.93336 3.41988 4.96002Z" fill="#505050"/>
<path d="M3.47312 5.67336C3.26646 5.67336 3.07979 5.59334 2.93313 5.44668C2.79313 5.30668 2.71313 5.11334 2.71313 4.90668C2.71313 4.70001 2.79313 4.51335 2.9398 4.36668C3.0798 4.22668 3.27313 4.14667 3.4798 4.14667C3.68646 4.14667 3.87313 4.22669 4.0198 4.37335C4.31313 4.67335 4.31313 5.15335 4.0198 5.45335C3.86646 5.59335 3.67979 5.67336 3.47312 5.67336ZM3.30646 5.08002C3.35312 5.12668 3.41312 5.15334 3.47312 5.15334C3.53312 5.15334 3.59312 5.12669 3.63979 5.08669C3.68646 5.04669 3.70646 4.98002 3.70646 4.92002C3.70646 4.86002 3.6798 4.79336 3.63314 4.75336C3.55314 4.66669 3.38647 4.66669 3.2998 4.75336C3.21314 4.83336 3.21312 4.98668 3.30646 5.08002Z" fill="#505050"/>
<path d="M7.99984 3.63335C7.83984 3.63335 7.69317 3.57335 7.57983 3.46001C7.4665 3.34668 7.40649 3.20001 7.40649 3.04001C7.40649 2.88001 7.4665 2.73334 7.57983 2.62001C7.81317 2.38667 8.19318 2.38667 8.42651 2.62001C8.65985 2.85334 8.65985 3.23335 8.42651 3.46001C8.31318 3.56668 8.15984 3.63335 7.99984 3.63335ZM8.04651 2.98667L7.94651 3.08668C7.97318 3.11335 8.01984 3.11335 8.04651 3.08668V2.98667ZM7.95317 2.98667C7.9265 3.01333 7.9265 3.06002 7.95317 3.08668L8.05316 2.98667H7.95317Z" fill="#505050"/>
<path d="M8 3.79999C7.79333 3.79999 7.60667 3.71997 7.46 3.57331C7.32 3.43331 7.23999 3.23998 7.23999 3.03331C7.23999 2.82664 7.32001 2.63998 7.46667 2.49331C7.76667 2.19331 8.24667 2.19331 8.54667 2.49331C8.84001 2.79331 8.84001 3.27331 8.54667 3.57331C8.4 3.71997 8.20667 3.79999 8 3.79999ZM8.16667 2.86664L7.83333 3.19998C7.92667 3.29331 8.07333 3.29331 8.16667 3.19998C8.21333 3.15331 8.23334 3.09331 8.23334 3.03331C8.23334 2.97331 8.21333 2.91331 8.16667 2.86664ZM8 2.79999C7.94 2.79999 7.87333 2.82665 7.83333 2.87332C7.74 2.96665 7.74 3.11332 7.83333 3.20665L8.16667 2.87332C8.12667 2.82665 8.06667 2.79999 8 2.79999Z" fill="#505050"/>
</svg>
