<svg width="16" height="17" viewBox="0 0 16 17" fill="none" xmlns="http://www.w3.org/2000/svg">
<path d="M10.0001 15.6666H6.00008C3.06008 15.6666 2.16675 14.7733 2.16675 11.8333V5.16665C2.16675 2.22665 3.06008 1.33331 6.00008 1.33331H10.0001C12.9401 1.33331 13.8334 2.22665 13.8334 5.16665V11.8333C13.8334 14.7733 12.9401 15.6666 10.0001 15.6666ZM6.00008 2.33331C3.61341 2.33331 3.16675 2.78665 3.16675 5.16665V11.8333C3.16675 14.2133 3.61341 14.6666 6.00008 14.6666H10.0001C12.3867 14.6666 12.8334 14.2133 12.8334 11.8333V5.16665C12.8334 2.78665 12.3867 2.33331 10.0001 2.33331H6.00008Z" fill="#505050"/>
<path d="M9.33341 4.66669H6.66675C6.39341 4.66669 6.16675 4.44002 6.16675 4.16669C6.16675 3.89335 6.39341 3.66669 6.66675 3.66669H9.33341C9.60675 3.66669 9.83341 3.89335 9.83341 4.16669C9.83341 4.44002 9.60675 4.66669 9.33341 4.66669Z" fill="#505050"/>
<path d="M7.99989 13.74C7.15322 13.74 6.46655 13.0533 6.46655 12.2067C6.46655 11.36 7.15322 10.6733 7.99989 10.6733C8.84655 10.6733 9.53322 11.36 9.53322 12.2067C9.53322 13.0533 8.84655 13.74 7.99989 13.74ZM7.99989 11.6667C7.70655 11.6667 7.46655 11.9067 7.46655 12.2C7.46655 12.4933 7.70655 12.7333 7.99989 12.7333C8.29322 12.7333 8.53322 12.4933 8.53322 12.2C8.53322 11.9067 8.29322 11.6667 7.99989 11.6667Z" fill="#505050"/>
</svg>
