<svg width="16" height="17" viewBox="0 0 16 17" fill="none" xmlns="http://www.w3.org/2000/svg">
<path d="M3.71338 15.6333C2.15338 15.6333 0.833383 14.3133 0.833383 12.7533V8.64664C0.80005 6.69997 1.52005 4.86664 2.86672 3.4933C4.21338 2.12664 6.02005 1.36664 7.96672 1.36664C11.9401 1.36664 15.1667 4.59997 15.1667 8.56664V12.6733C15.1667 14.26 13.8734 15.5533 12.2867 15.5533C10.7267 15.5533 9.40672 14.2333 9.40672 12.6733V10.8C9.40672 9.8333 10.1667 9.0733 11.1334 9.0733C12.1001 9.0733 12.8601 9.8333 12.8601 10.8V12.82C12.8601 13.0933 12.6334 13.32 12.3601 13.32C12.0867 13.32 11.8601 13.0933 11.8601 12.82V10.8C11.8601 10.3466 11.4934 10.0733 11.1334 10.0733C10.6801 10.0733 10.4067 10.44 10.4067 10.8V12.6733C10.4067 13.6933 11.2667 14.5533 12.2867 14.5533C13.3067 14.5533 14.1667 13.6933 14.1667 12.6733V8.56664C14.1667 5.14664 11.3867 2.36664 7.96672 2.36664C6.29338 2.36664 4.74005 3.0133 3.58005 4.1933C2.42005 5.3733 1.80005 6.9533 1.83338 8.6333V12.7533C1.83338 13.7733 2.69338 14.6333 3.71338 14.6333C4.73338 14.6333 5.59338 13.7733 5.59338 12.7533V10.88C5.59338 10.4266 5.22672 10.1533 4.86672 10.1533C4.41338 10.1533 4.14005 10.52 4.14005 10.88V12.8266C4.14005 13.1 3.91338 13.3266 3.64005 13.3266C3.36672 13.3266 3.14005 13.1 3.14005 12.8266V10.88C3.14005 9.9133 3.90005 9.1533 4.86672 9.1533C5.83338 9.1533 6.59338 9.9133 6.59338 10.88V12.7533C6.59338 14.3133 5.27338 15.6333 3.71338 15.6333Z" fill="#505050"/>
</svg>
