<svg width="16" height="17" viewBox="0 0 16 17" fill="none" xmlns="http://www.w3.org/2000/svg">
<path d="M11.4933 15.6666H4.50662C2.63995 15.6666 1.45329 14.5533 1.34662 12.6933L0.999953 7.19331C0.946619 6.35998 1.23329 5.55998 1.80662 4.95331C2.37329 4.34665 3.17329 3.99998 3.99995 3.99998C4.21329 3.99998 4.41995 3.87331 4.51995 3.67331L4.99995 2.71998C5.39329 1.93998 6.37995 1.33331 7.23995 1.33331H8.76662C9.62662 1.33331 10.6066 1.93998 11 2.71331L11.48 3.68665C11.58 3.87331 11.78 3.99998 12 3.99998C12.8266 3.99998 13.6266 4.34665 14.1933 4.95331C14.7666 5.56665 15.0533 6.35998 15 7.19331L14.6533 12.7C14.5333 14.5866 13.38 15.6666 11.4933 15.6666ZM7.23995 2.33331C6.74662 2.33331 6.11995 2.71998 5.89329 3.16665L5.41329 4.12665C5.13329 4.66665 4.59329 4.99998 3.99995 4.99998C3.43995 4.99998 2.91995 5.22665 2.53329 5.63331C2.15329 6.03998 1.95995 6.57331 1.99995 7.12665L2.34662 12.6333C2.42662 13.98 3.15329 14.6666 4.50662 14.6666H11.4933C12.84 14.6666 13.5666 13.98 13.6533 12.6333L14 7.12665C14.0333 6.57331 13.8466 6.03998 13.4666 5.63331C13.08 5.22665 12.56 4.99998 12 4.99998C11.4066 4.99998 10.8666 4.66665 10.5866 4.13998L10.1 3.16665C9.87995 2.72665 9.25329 2.33998 8.75995 2.33998H7.23995V2.33331Z" fill="#505050"/>
<path d="M9 6.33331H7C6.72667 6.33331 6.5 6.10665 6.5 5.83331C6.5 5.55998 6.72667 5.33331 7 5.33331H9C9.27333 5.33331 9.5 5.55998 9.5 5.83331C9.5 6.10665 9.27333 6.33331 9 6.33331Z" fill="#505050"/>
<path d="M7.99992 13C6.52659 13 5.33325 11.8067 5.33325 10.3334C5.33325 8.86002 6.52659 7.66669 7.99992 7.66669C9.47325 7.66669 10.6666 8.86002 10.6666 10.3334C10.6666 11.8067 9.47325 13 7.99992 13ZM7.99992 8.66669C7.07992 8.66669 6.33325 9.41335 6.33325 10.3334C6.33325 11.2534 7.07992 12 7.99992 12C8.91992 12 9.66659 11.2534 9.66659 10.3334C9.66659 9.41335 8.91992 8.66669 7.99992 8.66669Z" fill="#505050"/>
</svg>
