<svg width="62" height="31" viewBox="0 0 62 31" fill="none" xmlns="http://www.w3.org/2000/svg">
<path d="M42.7834 3.44373H16.0256V23.4704H42.7834V3.44373Z" fill="#AECDFB"/>
<path d="M45.539 26.9149H30.7348C30.3545 26.9149 30.0459 26.6069 30.0459 26.226C30.0459 25.845 30.3545 25.5371 30.7348 25.5371H44.8501V1.37778H13.959V3.8006C13.959 4.18087 13.6503 4.48949 13.2701 4.48949C12.8898 4.48949 12.5812 4.18087 12.5812 3.8006V0.688889C12.5812 0.308622 12.8898 0 13.2701 0H45.539C45.9199 0 46.2279 0.308622 46.2279 0.688889V26.226C46.2279 26.6063 45.9199 26.9149 45.539 26.9149Z" fill="#0C0C0C"/>
<path d="M19.0705 26.9148H13.2701C12.8898 26.9148 12.5812 26.6069 12.5812 26.226V22.756C12.5812 22.3751 12.8898 22.0671 13.2701 22.0671C13.6503 22.0671 13.959 22.3751 13.959 22.756V25.5371H19.0705C19.4508 25.5371 19.7594 25.845 19.7594 26.226C19.7594 26.6069 19.4508 26.9148 19.0705 26.9148Z" fill="#0C0C0C"/>
<path d="M61.3111 26.9148C60.9322 26.9148 60.625 26.6097 60.6222 26.2308L60.5568 16.492L53.4943 9.07883H46.2279V25.5371H50.1442C50.5252 25.5371 50.8331 25.845 50.8331 26.226C50.8331 26.6069 50.5252 26.9148 50.1442 26.9148H45.539C45.158 26.9148 44.8501 26.6069 44.8501 26.226V8.38994C44.8501 8.00967 45.158 7.70105 45.539 7.70105H53.7898C53.9779 7.70105 54.1584 7.7782 54.2886 7.9146L61.7423 15.739C61.8636 15.8664 61.9311 16.0345 61.9325 16.2095L62 26.2211C62.0027 26.6021 61.6962 26.9121 61.3159 26.9148C61.3145 26.9148 61.3125 26.9148 61.3111 26.9148Z" fill="#0C0C0C"/>
<path d="M55.7256 16.9025H49.8941C49.5132 16.9025 49.2053 16.5946 49.2053 16.2136V8.38994C49.2053 8.00967 49.5132 7.70105 49.8941 7.70105C50.2751 7.70105 50.583 8.00967 50.583 8.38994V15.5254H55.7256C56.1065 15.5254 56.4145 15.8341 56.4145 16.2143C56.4145 16.5946 56.1059 16.9025 55.7256 16.9025Z" fill="#0C0C0C"/>
<path d="M22.7161 30.5598C20.3264 30.5598 18.3816 28.6158 18.3816 26.226C18.3816 23.8363 20.3257 21.8922 22.7161 21.8922C25.1059 21.8922 27.0499 23.8363 27.0499 26.226C27.0499 28.6158 25.1052 30.5598 22.7161 30.5598ZM22.7161 23.27C21.0862 23.27 19.7594 24.5961 19.7594 26.226C19.7594 27.8559 21.0855 29.182 22.7161 29.182C24.3467 29.182 25.6721 27.8559 25.6721 26.226C25.6721 24.5961 24.346 23.27 22.7161 23.27Z" fill="#0C0C0C"/>
<path d="M53.7898 30.5598C51.3994 30.5598 49.4553 28.6158 49.4553 26.226C49.4553 23.8363 51.3994 21.8922 53.7898 21.8922C56.1796 21.8922 58.1236 23.8363 58.1236 26.226C58.1236 28.6158 56.1796 30.5598 53.7898 30.5598ZM53.7898 23.27C52.1599 23.27 50.8331 24.5961 50.8331 26.226C50.8331 27.8559 52.1599 29.182 53.7898 29.182C55.4197 29.182 56.7458 27.8559 56.7458 26.226C56.7458 24.5961 55.4197 23.27 53.7898 23.27Z" fill="#0C0C0C"/>
<path d="M29.4045 14.1456H0.688889C0.308622 14.1456 0 13.837 0 13.4567C0 13.0764 0.308622 12.7678 0.688889 12.7678H29.4045C29.7848 12.7678 30.0934 13.0764 30.0934 13.4567C30.0934 13.837 29.7848 14.1456 29.4045 14.1456Z" fill="#0C0C0C"/>
<path d="M29.4045 8.31357H7.9794C7.59913 8.31357 7.29051 8.00495 7.29051 7.62468C7.29051 7.24441 7.59913 6.93579 7.9794 6.93579H29.4052C29.7855 6.93579 30.0941 7.24441 30.0941 7.62468C30.0941 8.00495 29.7848 8.31357 29.4045 8.31357Z" fill="#0C0C0C"/>
<path d="M29.4045 19.9778H7.9794C7.59913 19.9778 7.29051 19.6698 7.29051 19.2889C7.29051 18.9079 7.59913 18.6 7.9794 18.6H29.4052C29.7855 18.6 30.0941 18.9079 30.0941 19.2889C30.0941 19.6698 29.7848 19.9778 29.4045 19.9778Z" fill="#0C0C0C"/>
</svg>
