<svg width="32" height="32" viewBox="0 0 32 32" fill="none" xmlns="http://www.w3.org/2000/svg">
<path d="M2.40173 3.41516H6.95531L10.0062 18.6582C10.1103 19.1824 10.3954 19.6532 10.8117 19.9882C11.2279 20.3233 11.7487 20.5013 12.283 20.4911H23.3482C23.8824 20.5013 24.4032 20.3233 24.8195 19.9882C25.2357 19.6532 25.5208 19.1824 25.6249 18.6582L27.4464 9.10713H8.0937M12.6473 26.183C12.6473 26.8117 12.1376 27.3214 11.5089 27.3214C10.8802 27.3214 10.3705 26.8117 10.3705 26.183C10.3705 25.5543 10.8802 25.0446 11.5089 25.0446C12.1376 25.0446 12.6473 25.5543 12.6473 26.183ZM25.1696 26.183C25.1696 26.8117 24.6599 27.3214 24.0312 27.3214C23.4025 27.3214 22.8928 26.8117 22.8928 26.183C22.8928 25.5543 23.4025 25.0446 24.0312 25.0446C24.6599 25.0446 25.1696 25.5543 25.1696 26.183Z" stroke="#1A1A1A" stroke-width="1.32812" stroke-linecap="round" stroke-linejoin="round"/>
</svg>
