<svg width="20" height="20" viewBox="0 0 20 20" fill="none" xmlns="http://www.w3.org/2000/svg">
<path d="M10 17.7083H5.83334C2.79167 17.7083 1.04167 15.9583 1.04167 12.9166V7.08329C1.04167 4.04163 2.79167 2.29163 5.83334 2.29163H14.1667C17.2083 2.29163 18.9583 4.04163 18.9583 7.08329V9.58329C18.9583 9.92496 18.675 10.2083 18.3333 10.2083C17.9917 10.2083 17.7083 9.92496 17.7083 9.58329V7.08329C17.7083 4.69996 16.55 3.54163 14.1667 3.54163H5.83334C3.45001 3.54163 2.29167 4.69996 2.29167 7.08329V12.9166C2.29167 15.3 3.45001 16.4583 5.83334 16.4583H10C10.3417 16.4583 10.625 16.7416 10.625 17.0833C10.625 17.425 10.3417 17.7083 10 17.7083Z" fill="#CBCBCB"/>
<path d="M9.99979 10.725C9.29979 10.725 8.59146 10.5083 8.04979 10.0666L5.44145 7.9833C5.17479 7.76663 5.12479 7.37497 5.34146 7.10831C5.55812 6.84164 5.94978 6.79998 6.21645 7.00831L8.82478 9.09164C9.45812 9.59998 10.5331 9.59998 11.1664 9.09164L13.7748 7.00831C14.0415 6.79164 14.4331 6.83331 14.6498 7.10831C14.8664 7.37497 14.8248 7.77496 14.5498 7.9833L11.9414 10.0666C11.4081 10.5083 10.6998 10.725 9.99979 10.725Z" fill="#CBCBCB"/>
<path d="M13.1834 18.15C12.8667 18.15 12.5667 18.0333 12.3501 17.8166C12.0917 17.5583 11.9751 17.1833 12.0334 16.7916L12.1917 15.6666C12.2334 15.375 12.4084 15.025 12.6167 14.8166L15.5667 11.8666C15.9667 11.4666 16.3584 11.2583 16.7834 11.2166C17.3001 11.1666 17.8167 11.3833 18.3001 11.8666C18.7834 12.35 19.0001 12.8583 18.9501 13.3833C18.9084 13.8 18.6917 14.2 18.3001 14.6L15.3501 17.55C15.1417 17.7583 14.7917 17.9333 14.5001 17.975L13.375 18.1333C13.3084 18.1416 13.2501 18.15 13.1834 18.15ZM16.9251 12.4583C16.9167 12.4583 16.9084 12.4583 16.9001 12.4583C16.7834 12.4666 16.6251 12.575 16.4501 12.75L13.5001 15.7C13.4751 15.725 13.4334 15.8083 13.4334 15.8416L13.2834 16.8833L14.3251 16.7333C14.3584 16.725 14.4417 16.6833 14.4667 16.6583L17.4167 13.7083C17.5917 13.525 17.7001 13.375 17.7084 13.2583C17.7251 13.0916 17.5584 12.8916 17.4167 12.75C17.2834 12.6166 17.0917 12.4583 16.9251 12.4583Z" fill="#CBCBCB"/>
<path d="M17.4334 15.2083C17.3751 15.2083 17.3168 15.1999 17.2668 15.1833C16.1668 14.8749 15.2918 14 14.9834 12.9C14.8918 12.5666 15.0834 12.2249 15.4168 12.1249C15.7501 12.0333 16.0918 12.2249 16.1834 12.5583C16.3751 13.2416 16.9168 13.7833 17.6001 13.9749C17.9334 14.0666 18.1251 14.4166 18.0334 14.75C17.9584 15.025 17.7084 15.2083 17.4334 15.2083Z" fill="#CBCBCB"/>
</svg>
