<svg width="32" height="32" viewBox="0 0 32 32" fill="none" xmlns="http://www.w3.org/2000/svg">
<path fill-rule="evenodd" clip-rule="evenodd" d="M7.07273 5.16406L7.93717 6.77768C9.98037 10.5916 12.8974 11.7617 14.7143 11.9922V11.3094C14.7143 8.00885 17.3899 5.33322 20.6904 5.33322C23.9909 5.33322 26.6667 8.00885 26.6667 11.3094V13.3332C26.6667 22.1716 20.4007 27.9999 13.1904 27.9999C10.0218 27.9999 7.78343 26.9661 6.32537 25.8861C5.60312 25.3511 5.08141 24.8119 4.73431 24.3965C4.56055 24.1887 4.42967 24.0108 4.33847 23.8783C4.29283 23.8121 4.25701 23.7571 4.23063 23.7152C4.21744 23.6943 4.20659 23.6765 4.19804 23.6624L4.18692 23.6437L4.18264 23.6365L4.18081 23.6333L4.17999 23.6319C4.17999 23.6319 4.1792 23.6305 5.33329 22.9628L4.1792 23.6305L3.02145 21.6295H5.33329C6.80525 21.6295 7.67176 21.6239 8.52348 21.4007C9.33559 21.1877 10.2224 20.7477 11.5711 19.6988L13.2083 21.8037C11.6998 22.9769 10.487 23.6427 9.19951 23.9801C8.96381 24.0419 8.72864 24.0916 8.49287 24.1316C9.54588 24.7667 11.0719 25.3332 13.1904 25.3332C18.8373 25.3332 24 20.7911 24 13.3332V11.3094C24 9.48161 22.5183 7.99989 20.6904 7.99989C18.8627 7.99989 17.3809 9.48161 17.3809 11.3094V14.5049L16.2189 14.6555C14.0965 14.9307 9.90516 14.1324 6.79123 9.94349C6.67759 10.3694 6.64948 10.81 6.70833 11.2484C6.84664 12.2784 7.48875 13.4493 8.94868 14.4587L7.4322 16.6521C5.46356 15.2912 4.31995 13.4992 4.06539 11.6033C3.81121 9.71017 4.46709 7.86621 5.80207 6.48178L7.07273 5.16406Z" fill="white"/>
<path fill-rule="evenodd" clip-rule="evenodd" d="M7.28112 17.1733C8.05192 17.0627 8.74276 16.648 9.06651 16.4128L10.6339 18.5701C10.1494 18.9221 9.0447 19.6141 7.66004 19.8129C6.18254 20.0251 4.4548 19.6559 3.00235 17.9747L5.02028 16.2313C5.81558 17.1519 6.60318 17.2707 7.28112 17.1733Z" fill="white"/>
<path fill-rule="evenodd" clip-rule="evenodd" d="M26.3817 7.31095C26.5376 7.12171 26.6505 6.82657 26.6487 6.32285L29.3153 6.31299C29.3187 7.20831 29.1165 8.18488 28.4403 9.00609C27.7619 9.83008 26.7553 10.3166 25.5143 10.5296L25.0632 7.90133C25.8855 7.7602 26.2283 7.49744 26.3817 7.31095Z" fill="white"/>
</svg>
