<svg width="32" height="32" viewBox="0 0 32 32" fill="none" xmlns="http://www.w3.org/2000/svg">
<path fill-rule="evenodd" clip-rule="evenodd" d="M13.3333 12.7098V19.2901L18.8169 16L13.3333 12.7098ZM10.6667 21.6451C10.6667 22.6815 11.7973 23.3216 12.686 22.7884L22.0944 17.1433C22.9576 16.6255 22.9576 15.3745 22.0944 14.8567L12.686 9.2116C11.7973 8.67838 10.6667 9.31854 10.6667 10.3549V21.6451Z" fill="white"/>
<path fill-rule="evenodd" clip-rule="evenodd" d="M26.6667 23.3705V8.62948C26.6667 7.57403 26.0969 6.91508 25.4716 6.72321C23.3235 6.06416 20.0297 5.33329 16 5.33329C11.9703 5.33329 8.67655 6.06416 6.52839 6.72321C5.90302 6.91508 5.33332 7.57403 5.33332 8.62948V23.3705C5.33332 24.4258 5.90302 25.0849 6.52839 25.2768C8.67655 25.9357 11.9703 26.6666 16 26.6666C20.0297 26.6666 23.3235 25.9357 25.4716 25.2768C26.0969 25.0849 26.6667 24.4258 26.6667 23.3705ZM5.74626 4.17383C3.81498 4.76633 2.66666 6.60936 2.66666 8.62948V23.3705C2.66666 25.3906 3.81498 27.2336 5.74626 27.8261C8.0907 28.5453 11.6514 29.3333 16 29.3333C20.3487 29.3333 23.9093 28.5453 26.2537 27.8261C28.1851 27.2336 29.3333 25.3906 29.3333 23.3705V8.62948C29.3333 6.60936 28.1851 4.76633 26.2537 4.17383C23.9093 3.45456 20.3487 2.66663 16 2.66663C11.6514 2.66663 8.0907 3.45456 5.74626 4.17383Z" fill="white"/>
</svg>
