<svg width="156" height="32" viewBox="0 0 156 32" fill="none" xmlns="http://www.w3.org/2000/svg">
<g clip-path="url(#clip0_175_1874)">
<path d="M0 6.30383H8.81035V15.1142H0V6.30383Z" fill="#1E5EFF"/>
<path d="M0 17.3168H8.81035V26.1271H0V17.3168Z" fill="#1E5EFF"/>
<path d="M11.0129 6.30383L15.9688 10.709L19.8233 15.1142H11.0129V6.30383Z" fill="#1E5EFF"/>
<path d="M11.0129 17.3168H19.8233L15.9688 21.7219L11.0129 26.1271V17.3168Z" fill="#1E5EFF"/>
</g>
<path d="M28.5429 26V6.77742H31.4432V15.131H41.0263V6.77742H43.936V26H41.0263V17.6183H31.4432V26H28.5429ZM63.6748 6.77742V26H61.0091L51.2383 11.9022H51.06V26H48.1597V6.77742H50.8441L60.6243 20.894H60.8026V6.77742H63.6748ZM80.9145 12.8502C80.7331 12.2808 80.489 11.7708 80.1824 11.3203C79.8821 10.8635 79.5223 10.4755 79.103 10.1564C78.6838 9.83101 78.2051 9.58384 77.667 9.4149C77.1351 9.24595 76.55 9.16147 75.9118 9.16147C74.8293 9.16147 73.8531 9.43993 72.9834 9.99683C72.1136 10.5537 71.4253 11.3703 70.9184 12.4466C70.4178 13.5166 70.1675 14.8275 70.1675 16.3793C70.1675 17.9374 70.421 19.2546 70.9278 20.3308C71.4347 21.4071 72.1292 22.2237 73.0115 22.7806C73.8938 23.3375 74.8981 23.6159 76.0244 23.6159C77.0694 23.6159 77.9799 23.4032 78.7558 22.9777C79.5379 22.5522 80.1418 21.9515 80.5673 21.1756C80.999 20.3934 81.2149 19.4736 81.2149 18.4161L81.9658 18.5569H76.4656V16.1634H84.0213V18.3504C84.0213 19.9648 83.6772 21.3664 82.9889 22.5553C82.3068 23.738 81.3619 24.6515 80.1543 25.296C78.9529 25.9406 77.5763 26.2628 76.0244 26.2628C74.2849 26.2628 72.7581 25.8623 71.444 25.0614C70.1363 24.2605 69.1163 23.1247 68.3842 21.6543C67.6521 20.1775 67.286 18.4255 67.286 16.3981C67.286 14.865 67.4988 13.4884 67.9243 12.2682C68.3498 11.0481 68.9474 10.0125 69.717 9.16147C70.4929 8.30422 71.4034 7.65032 72.4484 7.19979C73.4996 6.74301 74.6478 6.51461 75.893 6.51461C76.9317 6.51461 77.8985 6.66792 78.7933 6.97453C79.6944 7.28114 80.4953 7.71603 81.1961 8.27919C81.9032 8.84235 82.4883 9.51189 82.9513 10.2878C83.4144 11.0575 83.7272 11.9116 83.8899 12.8502H80.9145ZM105.276 15.1028L102.732 15.5534C102.626 15.228 102.457 14.9182 102.226 14.6241C102 14.33 101.694 14.0891 101.306 13.9014C100.918 13.7137 100.433 13.6198 99.8508 13.6198C99.0562 13.6198 98.3929 13.7982 97.861 14.1548C97.3291 14.5052 97.0632 14.9589 97.0632 15.5158C97.0632 15.9976 97.2415 16.3856 97.5982 16.6797C97.9549 16.9738 98.5305 17.2147 99.3252 17.4024L101.615 17.928C102.942 18.2346 103.931 18.7071 104.581 19.3453C105.232 19.9836 105.558 20.8127 105.558 21.8326C105.558 22.6961 105.307 23.4658 104.807 24.1416C104.312 24.8111 103.621 25.3367 102.732 25.7184C101.85 26.1001 100.827 26.291 99.6631 26.291C98.0487 26.291 96.7316 25.9468 95.7116 25.2585C94.6917 24.5639 94.0659 23.5784 93.8344 22.3019L96.547 21.8889C96.7159 22.596 97.0632 23.131 97.5888 23.4939C98.1144 23.8506 98.7996 24.0289 99.6444 24.0289C100.564 24.0289 101.299 23.8381 101.85 23.4564C102.401 23.0684 102.676 22.596 102.676 22.0391C102.676 21.5886 102.507 21.21 102.169 20.9034C101.838 20.5968 101.328 20.3653 100.639 20.2088L98.1989 19.6738C96.8536 19.3672 95.8587 18.8791 95.2142 18.2096C94.5759 17.5401 94.2568 16.6922 94.2568 15.666C94.2568 14.815 94.4946 14.0704 94.9701 13.4321C95.4457 12.7939 96.1027 12.2964 96.9412 11.9397C97.7797 11.5768 98.7402 11.3953 99.8227 11.3953C101.381 11.3953 102.607 11.7332 103.502 12.409C104.397 13.0786 104.988 13.9765 105.276 15.1028ZM111.45 17.4399V26H108.643V6.77742H111.412V13.9296H111.59C111.928 13.1537 112.445 12.5373 113.139 12.0805C113.834 11.6237 114.741 11.3953 115.861 11.3953C116.85 11.3953 117.713 11.5987 118.452 12.0054C119.196 12.4122 119.772 13.0191 120.179 13.8263C120.592 14.6273 120.798 15.6284 120.798 16.8299V26H117.992V17.1678C117.992 16.1103 117.719 15.2905 117.175 14.7086C116.631 14.1204 115.874 13.8263 114.904 13.8263C114.24 13.8263 113.646 13.9671 113.12 14.2487C112.601 14.5303 112.191 14.9433 111.891 15.4877C111.597 16.0258 111.45 16.6765 111.45 17.4399ZM130.616 26.291C129.264 26.291 128.085 25.9812 127.077 25.3618C126.07 24.7423 125.288 23.8756 124.731 22.7618C124.174 21.648 123.895 20.3465 123.895 18.8572C123.895 17.3617 124.174 16.0539 124.731 14.9339C125.288 13.8138 126.07 12.944 127.077 12.3246C128.085 11.7051 129.264 11.3953 130.616 11.3953C131.967 11.3953 133.147 11.7051 134.154 12.3246C135.162 12.944 135.944 13.8138 136.501 14.9339C137.058 16.0539 137.336 17.3617 137.336 18.8572C137.336 20.3465 137.058 21.648 136.501 22.7618C135.944 23.8756 135.162 24.7423 134.154 25.3618C133.147 25.9812 131.967 26.291 130.616 26.291ZM130.625 23.9351C131.501 23.9351 132.227 23.7036 132.803 23.2405C133.379 22.7775 133.804 22.1611 134.079 21.3915C134.361 20.6218 134.502 19.7739 134.502 18.8479C134.502 17.928 134.361 17.0833 134.079 16.3136C133.804 15.5377 133.379 14.9151 132.803 14.4458C132.227 13.9765 131.501 13.7419 130.625 13.7419C129.743 13.7419 129.011 13.9765 128.429 14.4458C127.853 14.9151 127.425 15.5377 127.143 16.3136C126.868 17.0833 126.73 17.928 126.73 18.8479C126.73 19.7739 126.868 20.6218 127.143 21.3915C127.425 22.1611 127.853 22.7775 128.429 23.2405C129.011 23.7036 129.743 23.9351 130.625 23.9351ZM140.469 31.4063V11.5831H143.21V13.9202H143.444C143.607 13.6198 143.842 13.2726 144.148 12.8783C144.455 12.4841 144.88 12.14 145.425 11.8459C145.969 11.5455 146.689 11.3953 147.583 11.3953C148.747 11.3953 149.786 11.6894 150.7 12.2776C151.613 12.8658 152.33 13.7137 152.849 14.8212C153.375 15.9288 153.637 17.2616 153.637 18.8197C153.637 20.3778 153.378 21.7137 152.858 22.8275C152.339 23.9351 151.626 24.7892 150.718 25.3899C149.811 25.9844 148.775 26.2816 147.612 26.2816C146.736 26.2816 146.019 26.1345 145.462 25.8404C144.912 25.5463 144.48 25.2022 144.167 24.808C143.854 24.4138 143.613 24.0634 143.444 23.7567H143.275V31.4063H140.469ZM143.219 18.7915C143.219 19.8052 143.366 20.6938 143.66 21.4572C143.954 22.2206 144.38 22.8181 144.937 23.2499C145.494 23.6754 146.176 23.8881 146.983 23.8881C147.821 23.8881 148.522 23.666 149.085 23.2217C149.648 22.7712 150.074 22.1611 150.362 21.3915C150.656 20.6218 150.803 19.7552 150.803 18.7915C150.803 17.8404 150.659 16.9863 150.371 16.2291C150.09 15.472 149.664 14.8744 149.095 14.4364C148.531 13.9984 147.828 13.7794 146.983 13.7794C146.169 13.7794 145.481 13.989 144.918 14.4083C144.361 14.8275 143.939 15.4126 143.651 16.1634C143.363 16.9143 143.219 17.7904 143.219 18.7915Z" fill="#0951BE"/>
<defs>
<clipPath id="clip0_175_1874">
<rect width="26.431" height="26.431" fill="white"/>
</clipPath>
</defs>
</svg>
